/* XPM */
static char *_687507461647[] = {
/* columns rows colors chars-per-pixel */
"50 50 254 2 ",
"   c #000605",
".  c #010A05",
"X  c #01060A",
"o  c #000B0A",
"O  c #0A0C09",
"+  c #021204",
"@  c #02120C",
"#  c #09140A",
"$  c #031B0C",
"%  c #0C1B0B",
"&  c #081A03",
"*  c #121B04",
"=  c #111C0B",
"-  c #181609",
";  c #030C13",
":  c #050A16",
">  c #011413",
",  c #011A15",
"<  c #0B1B13",
"1  c #01151A",
"2  c #09151B",
"3  c #001C1A",
"4  c #0B1918",
"5  c #121C13",
"6  c #131815",
"7  c #28180F",
"8  c #03210B",
"9  c #092608",
"0  c #1A2402",
"q  c #1C2C01",
"w  c #14220A",
"e  c #17290A",
"r  c #183404",
"t  c #022315",
"y  c #01221D",
"u  c #0C231B",
"i  c #0B2B1C",
"p  c #062A15",
"a  c #152B1B",
"s  c #1C2B1B",
"d  c #162615",
"f  c #07351A",
"g  c #183618",
"h  c #063607",
"j  c #232A05",
"k  c #253607",
"l  c #242818",
"z  c #372916",
"x  c #243817",
"c  c #37391A",
"v  c #021D22",
"b  c #061A27",
"n  c #031E33",
"m  c #131334",
"M  c #2E1C33",
"N  c #012523",
"B  c #012A26",
"V  c #0B2B22",
"C  c #04242B",
"Z  c #012C2B",
"A  c #0B2A2B",
"S  c #172826",
"D  c #02322D",
"F  c #053A2B",
"G  c #083827",
"H  c #173625",
"J  c #012533",
"K  c #072A35",
"L  c #182535",
"P  c #003332",
"I  c #0B3335",
"U  c #023A34",
"Y  c #033538",
"T  c #013C3B",
"R  c #0B3B3C",
"E  c #0A3B34",
"W  c #163837",
"Q  c #253B28",
"!  c #363827",
"~  c #2B2D2B",
"^  c #4D3616",
"/  c #7E103F",
"(  c #573639",
")  c #6A2C39",
"_  c #0D5607",
"`  c #104819",
"'  c #25440B",
"]  c #394108",
"[  c #264417",
"{  c #34481E",
"}  c #345812",
"|  c #386716",
" . c #356E11",
".. c #09472A",
"X. c #17442B",
"o. c #195228",
"O. c #02433D",
"+. c #0B423B",
"@. c #044736",
"#. c #164539",
"$. c #075339",
"%. c #0F5A2B",
"&. c #295726",
"*. c #395729",
"=. c #244838",
"-. c #3B4634",
";. c #2D5230",
":. c #1E612B",
">. c #126C33",
",. c #38632A",
"<. c #3A6936",
"1. c #2F733A",
"2. c #4B5915",
"3. c #454C12",
"4. c #665C03",
"5. c #4C6119",
"6. c #546416",
"7. c #547214",
"8. c #6A7419",
"9. c #4F5131",
"0. c #45722E",
"q. c #022A46",
"w. c #033E44",
"e. c #073949",
"r. c #052559",
"t. c #043652",
"y. c #15304A",
"u. c #33364B",
"i. c #0D316E",
"p. c #0C1657",
"a. c #591B5E",
"s. c #69114A",
"d. c #582B5D",
"f. c #4F3046",
"g. c #6B2954",
"h. c #5C2F69",
"j. c #75346E",
"k. c #034344",
"l. c #014B45",
"z. c #024C4A",
"x. c #094549",
"c. c #14494C",
"v. c #02534D",
"b. c #085348",
"n. c #074556",
"m. c #144656",
"M. c #025352",
"N. c #025D5D",
"B. c #075956",
"V. c #165452",
"C. c #115F45",
"Z. c #234745",
"A. c #2B5849",
"S. c #285C56",
"D. c #364D49",
"F. c #08615A",
"G. c #176559",
"H. c #10744F",
"J. c #297756",
"K. c #2B704F",
"L. c #055C67",
"P. c #125763",
"I. c #0B5E71",
"U. c #125E77",
"Y. c #0D4970",
"T. c #315B6D",
"R. c #026463",
"E. c #076969",
"W. c #136B69",
"Q. c #07706A",
"!. c #0A6874",
"~. c #156777",
"^. c #087777",
"/. c #157A79",
"(. c #147262",
"). c #237468",
"_. c #4A574B",
"`. c #654E52",
"'. c #457958",
"]. c #467145",
"[. c #4D756D",
"{. c #4D5D6A",
"}. c #933079",
"|. c #A13A6B",
" X c #8F4673",
".X c #3B8911",
"XX c #32843A",
"oX c #75A612",
"OX c #40893A",
"+X c #629634",
"@X c #76B730",
"#X c #4B8E1B",
"$X c #68C433",
"%X c #32925A",
"&X c #188869",
"*X c #02827E",
"=X c #048A78",
"-X c #149B76",
";X c #118B79",
":X c #338969",
">X c #269873",
",X c #2F9071",
"<X c #3AA369",
"1X c #38A979",
"2X c #2EAE79",
"3X c #27A158",
"4X c #558E4C",
"5X c #66BD5E",
"6X c #428D71",
"7X c #54A55F",
"8X c #74CF50",
"9X c #80BE53",
"0X c #85C259",
"qX c #0C2A90",
"wX c #7E2B85",
"eX c #025984",
"rX c #0C498E",
"tX c #0B7785",
"yX c #106C90",
"uX c #0D4CB4",
"iX c #2241B6",
"pX c #0073BB",
"aX c #5D5B8C",
"sX c #1768CD",
"dX c #902F92",
"fX c #9C35A1",
"gX c #844D96",
"hX c #A2498D",
"jX c #038586",
"kX c #078D98",
"lX c #029995",
"zX c #18918E",
"xX c #2D9786",
"cX c #00A39C",
"vX c #2FA98A",
"bX c #1698A2",
"nX c #2593A0",
"mX c #06A9A7",
"MX c #12A7A9",
"NX c #06B2AC",
"BX c #00BDB4",
"VX c #06B4B1",
"CX c #4AAE88",
"ZX c #489494",
"AX c #02C5BD",
"SX c #00CBA8",
"DX c #0BB9C0",
"FX c #0C87CA",
"GX c #04CDC1",
"HX c #04D5CA",
"JX c #07DBD8",
"KX c #14CCC9",
"LX c #07E5DB",
"PX c #0CE9E9",
/* pixels */
"3 3 3 N N N N B Z Z Z D P T T T w.w.k.z.k.l.k.z.k.w.k.T T U U Y P Z D Z B B N y 3 y y 3 3 3 3 3 > > ",
"3 3 3 N v N B N Z Z D D P T T k.T O.k.l.l.z.l.z.x.z.l.l.O.T T Y P P Z Z B N N N y y 3 N 3 3 3 , 1 > ",
"3 3 3 3 3 N C B B Z D U U T T k.l.l.v.z.M.M.M.M.l.l.O.O.T T P P P Z Z Z B N N N 3 y y 3 3 3 3 , > > ",
"3 1 3 N N N B B Z D D D P U k.k.O.l.l.z.M.z.M.z.v.b.l.z.x.O.U O.P P Z Z B N N v N y y y 3 3 1 1 > > ",
"3 3 3 v v N N B Z D P P P T w.k.@.b.k.B.N.M.F.M.M.z.z.z.k.O.U D Z P Z Z B B N y 3 y 3 3 3 3 , , > @ ",
"3 3 3 y y N B N Z Z D D U U w.w.+.v.M.;XjX*XjX*X/.^.^.^.!.N.b.O.P P D Z N N N N y 3 N 3 3 3 > 1 > > ",
"3 , 3 3 v N N N Z C Z D E O.k.w.z.L.R.MXNXVXmXVXmXlXlXlXjXL.T Z P D Z Z B N N y 3 y 3 3 3 3 > > > > ",
"3 1 3 v 3 N N N K B D E #.c.c.n.I.jXjXPXPXPXJXJXHXGXAXAXmX^.m.I P P Z Z C N N N y 3 3 3 3 1 1 1 > > ",
"1 3 3 3 3 N N N Z D Y I +.+.k.w.M.Q.I.JXLXVXJXVXSXMXGXJXlX^.k.P Y I Z B B B B y y 3 3 3 , > 1 1 @ @ ",
", 1 3 3 y y y y B Z P P E +.w.t.v.E.U.LXPXkXcXjX=XtXmXDXkX!.w.I D D Z N N N v , 3 3 3 3 , 1 > > > > ",
"1 , , 3 3 N y N C Z Z P E R k.t.B.F.M.BXLXtX*XR.F.P.MXDXbX;XR I D F D B B N N N y 3 3 , 3 1 > > > @ ",
"1 1 3 3 y y y y N C Z D F R x.e.c.E.Y.cXGX^.^.M.l.n.MXAXlX^.P U D B N N N 3 N 2 3 3 3 , 1 > > > @ > ",
"> , 1 , 3 y y y N Z Z Z F #.x.e.k.W.~.AXGX!.E.v.l.x.mXNXjXE.P I I A A C N N y y 3 3 3 , , > > > > @ ",
"> 1 1 3 3 3 y y N B A D E +.c.e.x.R.E.AXAXL.F.v.k.c.MXVXzXP.K J C C N N N 3 y N 3 3 3 3 1 > > > @ > ",
"> > 1 3 3 3 y y V N A Z D E w.e.c.N.L.AXAXI.R.l.U m.MXVXbXP.e.Y Y P Z Z N 3 , 3 3 3 3 1 1 > > > > > ",
"1 > > , 3 3 y y y C C B V F Y q.y.!.~.HXBX~.Q.l.l.P.mXAXbX^.W.Q.W.E.N.V.x.Z y 1 3 3 , > > 1 ; > @ @ ",
"> > > > , 3 3 3 y C K N f G q.r...yXpX*XjX$.U x.O.^.yX&X_.`.A.K.W.W.F.V.b.Y C b S u < 1 1 ; > @ > ; ",
"@ > > , , 3 3 3 v n J B f H R t.i.iXsXI.!.F D ..U E.I.H.9.g.f.D.z.k.k.k.Y C v A i u , 1 1 > @ @ ; : ",
"> > > , > , , 3 8 3 N N B B q.r.t.qXiXn.V.&.D.r.@.R.n.V.) }.f.~ Z Z B Z Z v 2 v $ , , 1 > > > @ o > ",
"> > @ > 1 , 3 , b b n C B N n q.jXpXsX;X7X$X5XG.l.P.m.S.|.|. X`.B y y y N 3 3 3 , $ > 1 > 1 > @ > o ",
"@ ; > > > , , 3 9 8 u A y.q.p.i.i.i.i.*.| oX+X%.l.Y R #./ hX`._.V V i y t y 3 t < , > 1 > > > o o ; ",
"> > > @ > , , , N v C C C C n n N J Z &.| @X4Xn.v.J +.X.s.wXd.=.i i u u t t t 3 , , , , > > > o o o ",
"> o > > @ > , > , t $ , N C A C D C J &.5.oX+Xy.k.C G X.j.aXj.;.i i a u 4 u 4 t < , , > > > @ > o o ",
"; > > o > > > 1 v 3 3 $ i g [ ' Q k }  .<.#XOXO.x.L G =.a.wXj.! i V a S u 4 4 4 3 , @ @ @ > > ; o o ",
"> o > 6 5 < 1 b ~ ` _ h _ .X$X8X5X$X8X8X0X0X7X).N.f ` Q a.fXdXdXhXj.}.dXwXj.( S z z a 3 1 ; > > ; o ",
"> o o O @ $ 3 Z b s &.$.f o.XX1.0. . .|  ..X,.g y.Z g Q u.h.h.g.d.h.d.s.s.M S 7 l l i 3 ; ; ; X o o ",
"; : 1 $ & $ f #.E.C.H.=XE.m.B.F.u 9 d K O.$.b.m.e.(.:X6XCX6X[.:X[.aX{.( ) u.W ^ g i t , > : > o o o ",
": 2 b S p p G ..I ` h +.U.rXt.^.rXI.eXrXi.L m n S =.D.u.D.-.`.[.-X&X=.z [ F u w 8 , > @ o X + . o o ",
"; ; 4 b p h 8 f u ..9 o t.rXi.rX+...@.n.y.L C q.` i H a j g J.).vXC.x ! ..g l y 4 < > O O O X . o o ",
"o ; ; > $ $ $ $ O L I t q.yXFXrXt.y $ $ $ 9 0 j h w x [ c K.-X-X).! z =.L 7 d V 4 > @ > o O o $ X X ",
"o o ; o @ @ o ; X m L p t Y.iXqXi.n u V 3 p u A x e g r { '.,X1XA.^ { %.H 6 p 8 3 t , $ o     . o X ",
"o o ; ; @ O > : $ 1 v ` >.G.i.rXuXeXQ.G.I 5 d V ~ g [ [ ;.[.D.'.K.:XJ.:.C.S.=.%.#.#...F i 4 O : X o ",
"o o o > @ 1 , 4 S Q &.:.$.+.R W aXT.xX-X&XZ l S x x ' k *.;.J.<X<XK.5.8.8.7.7.6.6.6.6.2.2.2.2.6.m m ",
"o o o o > > > > + 9 p f B N V g k y.q.nX;X@.p e l g { ] { ,.<X1X1.&.{ ] k r 0 w # @ + O . . . . ; o ",
"o o X o > o @ > o # 9 w w S S S M D.:.6X,XC.$.H ! g [ 3.6.4XCX&X*.*.9.z d t u > 2 > > O ; X O : . . ",
"o X o o o o o > : > & * * = 2 b 6 9 X.y.xX1X3XV.! r ' 2.4X<X1X:.5.2.] j e g S = + + + . .       X X ",
"o o o o o ; ; @ $ $ > : : 6 < $ m V | <.M.kXzX7Xs ' } ].CX;X%X6.2.] j 0 9 w = O , 4 > @ X ; o ; X X ",
"o o o ; o o o o + @ @ $ % 8 < 1 + 1 W ].K.E.xX3Xo.{ 5.K.vX>X<.4.{ g x s d % # - ; > o o o o X X     ",
"o o o o o o o > 2 1 5 d r g S m y.u.0.7.0.X.~.zX:XA.J.&X>X'.2.3.e e d s 5 6 2 < + + . . . .   .     ",
"o X X o o ; ; o & O o ; @ @ > 2 > l - > e 7.:.bX1XJ.ZX>XK.6.^ [ k k q 0 * * @ $ @ O o . . X X X X   ",
"o X . o o o o o . o o @ @ @ @ > + a s # $ Q A.<.=XvXzXCX+X3.c r l e w = = % # # o o o o .           ",
". X . X o @ o + o o o @ @ @ @ @ $ $ < d 9 a X.;.H.;X:XJ.0.k j e e e w * = # # @ o o X . .           ",
". . . X o . o o o o @ @ o @ ; @ $ + o s s % d { K.:XW.| l q q l e e % % & # + O o o O o             ",
"X . . . . o o o @ o o o @ o @ @ @ @ # 5 5 d g x ,.T.0.d j 0 e l w * & * # @ + o o o X X       X     ",
"  X . X . X o o + o o o o o @ o O @ % # = d s d H 5.L ' * - l % % % * @ + @ O o o o X X             ",
"      . . o o o . o o o o o @ o > o @ # # = = d 9 - j 1 r - 6 & % # @ O @ @ o o . X . . X           ",
"X   X . X X . o o o o o o o o o 2 o + @ # & @ = # j O 0 % = # * # @ + # + O o o . X .         X     ",
"        . . X o X . X o o o X o X > # . + # % # * ; q O 6 p . - # + O . o o o X X . X               ",
"        .   X X . . X X o o o . o o o + + + @ + # # # # # # # O o . o . . . . .   .                 ",
"        X . . o o X . o o . o X o o o O O + # # # # # # O # O # . + . . . . . . .                   "
};
