/* XPM */
static char *_687567217151[] = {
/* columns rows colors chars-per-pixel */
"50 50 256 2 ",
"   c #3D1100",
".  c #3F2409",
"X  c #441A03",
"o  c #581D05",
"O  c #450C00",
"+  c #611D02",
"@  c #6A1E00",
"#  c #651C0B",
"$  c #6F1A0F",
"%  c #4A2B01",
"&  c #482506",
"*  c #542404",
"=  c #5C2301",
"-  c #5C2C02",
";  c #53250C",
":  c #5D2D0C",
">  c #572A08",
",  c #543303",
"<  c #5B3101",
"1  c #5D330B",
"2  c #57380C",
"3  c #522C12",
"4  c #5C2B13",
"5  c #5D2917",
"6  c #5D3414",
"7  c #5C3B1C",
"8  c #573717",
"9  c #492E10",
"0  c #652401",
"q  c #622D02",
"w  c #6D2D03",
"e  c #632D0C",
"r  c #6A2C0B",
"t  c #6B2508",
"y  c #732D02",
"u  c #752C0B",
"i  c #7A2805",
"p  c #643304",
"a  c #6D3402",
"s  c #643C02",
"d  c #6C3C02",
"f  c #65330B",
"g  c #6C350C",
"h  c #643B0D",
"j  c #6C3C0C",
"k  c #743402",
"l  c #7B3402",
"z  c #743C03",
"x  c #7B3B03",
"c  c #73340C",
"v  c #7C340A",
"b  c #733C0D",
"n  c #7B3C0D",
"m  c #622A14",
"M  c #6B2C1B",
"N  c #692B17",
"B  c #752A17",
"V  c #633413",
"C  c #6B3413",
"Z  c #643B13",
"A  c #6D3B13",
"S  c #64331B",
"D  c #6B351B",
"F  c #653B1B",
"G  c #6B3C1A",
"H  c #733513",
"J  c #7B3312",
"K  c #733C14",
"L  c #7B3C12",
"P  c #72361A",
"I  c #743D1B",
"U  c #7C3C1A",
"Y  c #7C361A",
"T  c #582425",
"R  c #5B3927",
"E  c #772E25",
"W  c #6C3D22",
"Q  c #673824",
"!  c #733523",
"~  c #753D23",
"^  c #7A3727",
"/  c #722D2F",
"(  c #4E1C37",
")  c #5D4207",
"_  c #5E4D15",
"`  c #644302",
"'  c #6D440C",
"]  c #6A4507",
"[  c #744204",
"{  c #7B4302",
"}  c #75420C",
"|  c #7B430C",
" . c #7B4C06",
".. c #654113",
"X. c #6D4314",
"o. c #6D421A",
"O. c #654718",
"+. c #744214",
"@. c #7D4313",
"#. c #74431B",
"$. c #7C431B",
"%. c #734A1B",
"&. c #7C4917",
"*. c #765405",
"=. c #684527",
"-. c #754324",
";. c #7C4A24",
":. c #7A4626",
">. c #754C30",
",. c #822D04",
"<. c #882902",
"1. c #843402",
"2. c #8C3404",
"3. c #833C02",
"4. c #893C03",
"5. c #84330B",
"6. c #843D0B",
"7. c #8B3D0B",
"8. c #8B340A",
"9. c #973C07",
"0. c #832812",
"q. c #813C13",
"w. c #8C3C13",
"e. c #843C1D",
"r. c #883718",
"t. c #953C16",
"y. c #962E0E",
"u. c #A13D02",
"i. c #A1391C",
"p. c #863A25",
"a. c #8E392F",
"s. c #871838",
"d. c #834303",
"f. c #8B4301",
"g. c #844A01",
"h. c #8C4B00",
"j. c #84430C",
"k. c #8A440C",
"l. c #844A0C",
"z. c #8C4A0C",
"x. c #934402",
"c. c #934B04",
"v. c #9B4B03",
"b. c #94450C",
"n. c #9B430A",
"m. c #9B4C0D",
"M. c #954A0A",
"N. c #8D5407",
"B. c #945202",
"V. c #9B5403",
"C. c #9B590B",
"Z. c #975708",
"A. c #834413",
"S. c #8B4514",
"D. c #834A12",
"F. c #8B4A14",
"G. c #83441B",
"H. c #8B431C",
"J. c #844A1A",
"K. c #8B4A1B",
"L. c #934313",
"P. c #934B15",
"I. c #9B4E12",
"U. c #94451B",
"Y. c #9B451C",
"T. c #934B1B",
"R. c #9C4816",
"E. c #8E5317",
"W. c #945114",
"Q. c #9A5315",
"!. c #94531C",
"~. c #9B531D",
"^. c #9C591C",
"/. c #A74906",
"(. c #B44B00",
"). c #BB4A00",
"_. c #A3530B",
"`. c #AC530D",
"'. c #A45B0D",
"]. c #A85905",
"[. c #B25D04",
"{. c #B85709",
"}. c #A34B1D",
"|. c #A74816",
" X c #A45313",
".X c #AC5412",
"XX c #A3541D",
"oX c #AA5A1B",
"OX c #A85D17",
"+X c #B25412",
"@X c #B75A15",
"#X c #B14717",
"$X c #9C6204",
"%X c #9D6316",
"&X c #A86607",
"*X c #B36205",
"=X c #B86609",
"-X c #B57303",
";X c #A96318",
":X c #B66719",
">X c #B87816",
",X c #AE751C",
"<X c #834422",
"1X c #8A4C21",
"2X c #874425",
"3X c #924B22",
"4X c #954624",
"5X c #8F5122",
"6X c #985526",
"7X c #874535",
"8X c #9B5437",
"9X c #A54C24",
"0X c #A45424",
"qX c #A35D22",
"wX c #AB5A22",
"eX c #A85A28",
"rX c #B65C29",
"tX c #A55834",
"yX c #A94B35",
"uX c #9E6120",
"iX c #A86626",
"pX c #B46423",
"aX c #B96925",
"sX c #B77A21",
"dX c #AB6833",
"fX c #BB743A",
"gX c #B06835",
"hX c #C45A18",
"jX c #CB550C",
"kX c #C56A0C",
"lX c #C47708",
"zX c #C7681A",
"xX c #C67619",
"cX c #D37719",
"vX c #D16010",
"bX c #C35D24",
"nX c #C86825",
"mX c #C87827",
"MX c #C97A37",
"NX c #D47931",
"BX c #EA7D2A",
"VX c #B76F42",
"CX c #A54546",
"ZX c #C77742",
"AX c #BD8E1C",
"SX c #BE8131",
"DX c #D58707",
"FX c #CB8418",
"GX c #D9891A",
"HX c #D1910F",
"JX c #E38102",
"KX c #E59408",
"LX c #F0A600",
"PX c #D88F2C",
"IX c #E8972E",
"UX c #F0A92E",
/* pixels */
"V Z S S Z O.6 [.PX).(.).(.).).vX:XxX:XKXGXv a.] b j j h ' b L L c K =.Q G K K Y =.~ U V R =.4 S.Q.z.",
"V ..6 S 1 R V [./.+XnXnXnXnXhX+X*X3Xf.9.x.P ` P b K ' j j b n n :.S r K @.A F =.S w U.y * ; L m.<XH ",
"V ..V D s R C =X3.qXqXk.6.6.6.k cXp I 9.r.) O.^ K K A X.A A K c M 7X2Xg q Z ..8 q.l pX~.n k oX{.<XD ",
"C Z V C p 6 c kXz K.@.b b f A K @XZ.m yXB *.F n K K A A j j H H ,.v C 3 . & p { wXR.pXiXT.Q.aX{.!.@.",
"f ..6 D p 8 g kXw A.g #.;.A #.-.<.wXc.$ a ^ +.{ A K A K A K K K T.3.w - 1 I Q.+XiXwXk.j.x F.I.`.W.| ",
"V ..S D p 7 H zXc L p p h h A j l r.aXf.u E F.d K K K K K K I K Z ^.:X`. XgXiXL.b.6Xa g a b k T.S.K ",
"V ..F D 1 3 C kXg C #.X.X.%.#.K D.: $.FX,.| D s } b +.+.+.+.+.b 3 F.zXcXoXA.g c 1.T.K %.o.A g G.#.V ",
"9 2 3 m % 9 0 kXU m o.Z % - - A k =.1 n.DX< =.I b j b b b b } j L oX{.4.a X.#.z 2.U.A A X.g K U s , ",
"h.h.N.z / J *X2.w C / o 0 5 & _ d W ! t nX<.J ' A I K A #.#.h 1 $Xv.Q.v j X.K q.G U e.H - - V K p.p.",
"Y <X^ N.B.xXIXa./.}.9.`.m.J o r ;.& ; w Q.y >.2 j b K +.A V 6 V iXz.6.K A #.K a a 6.Y.U.c p g u 3.>X",
"^ a ^ D.v 5.DX/.7.E W.z.j.^.N w O f a ,XC.w ; 8 j d j f : ; 4 D | !.n H >.Z q A.3.b.XXwXI.!.6XP.eXY.",
"Q < K K B u ].t.{.rXx.L.J ,.CXB s.aXKXLXGX5.p.z %.Z : & X   ; W a L f I f j F.P.;Xm.n.b.S.F.S.6.mX X",
"V %.d U + iXe.3XrX1.2XA.j.f.lXDXcXjXy.yX2.&X:Xt 3 3 8 7 ; & * - k fX<XK L k.Q.MXiXP.d.x x L L z M. X",
"S 2Xg.a.e.>XB 3.l.*.6 o.o.- >XZ.2./.aX9.e.z iX5.S 5 ; ; > p &.^.7.!.&.@.0 7.m.x.z.n K %.K $.&.&.V. X",
"r.t.`.rXGXlX4XB / U 7XM t 6X_.<.7XqXC.n S o.k U.0 t K G.5X!.Q.m.0X6Xp j 4XVXk.y j.z X.%.A g h s i L.",
"@XKXJXnX(.9.tXv.V j *.d a sX!.r.Y 3.&X6XP g 1.|.oXI.4.x 4.|..X+X7.n A I + 4XS.J.S.b h ..K L @.' v 6X",
"W.W.l. . .| A.@.r.k r Y M.PXl A.6.S.6X#.g A f e vXl 6XwX;X'.|.Z Q 2 2 e gX:Xx ;.n c c K L L n 6.H U ",
"A.| n } K +.L n 4XL @.p.FXoXl @.w.F.D.+.g g G C hXy L n d 3.w.Z 4 4 - G.P.'.x j A #.:.#.A F I <Xr K ",
"A K K K +.#.K H n Y z ^ PXl 3.J.A.F.g b A f $.A #Xc I H j x G.F f 7 1 6Xf.7.6Xa ` d ` ` ] ] j j C K ",
"K A G K +.U K b a K a Y ;Xl j.<XS.j.g +.#.g C r w.u I $.K +.K F Z ; N F.m.y 6Xy G V f V D D S m K K ",
"X.X.j b b +.K b #.b t z.J g.@.A.J.j b b +.#.e f 8.8.c b j b @.K h o P { W.u <XF.n H.K.S.n r r P q.L ",
"j j b j b @.+.} -.- P B.E g.$.n A.a b j j +.f K 5.R.v } n K X.L Z m 1XS.| P q.qX'.&X;X=X&X'.C.C.q.v ",
"j n b n L #.K C 2 o t Z.7X[ | A.+.b b j h K A K w R.k j K A 2 w 3 p E.L e f | S.L n v 6.S.F.L c q.n ",
"j K L K K I V : % Q t z.^ @. .L g @.j +.#.g +.K n 9Xz ..K o.8 H 7 d 6Xc D a 5Xi ! P K U U I A m A.K ",
"K } z n A : 9 9 X D + 3X3X| z l.' s X.I #.I b b $XOXu E Q O.* ^ =.z IX=X=X=X].8.6 -.o.a } j - - ;Xz ",
"K A f F =.4 o o K l aXV.y K.2X^ ' h X.o.G I I ;.PX>Xk g < ) ) - o ;Xx.zXnX>XMX}.5Xw o Q.fXP.d.fXuXz ",
"c G 7 9 . o k wXn. X'.mX;XqXv @ $ $ 0.7.x.].-XDX{.9.t.U.1.8.P.Y e.MX/.rX|.x.x.5.OXMXmX/.].@X.Xm.1XH ",
"c C e V A A.T.wXwX5.H.u ~.x.*XFXGXFXxX+Xx.4.,.w.jX2.:XoX@XcX+Xc.q.4._.L.v l.j.<X<.+XmXnX:X_.x.m.a g ",
"L q.w. X;XoXS.K n P S ~ S.v.PX/.z k +.j f G F -.i.q.&.@.S.0X@.Z &.z.f.L :.' &.f i  XXX4.l l.F.6.g.M.",
"@.P.R./.[.v.n ! $.F 8 ' k MX1.J K K #.A C o.A G t 6X{ z z z } } = iXa b :.%.d -.t c @.J.J.J.@.#.x q.",
"| K v k.'.OXk.B = Z Z q wXx.H >.n x | x x n z n r.i.Y.,.~ ~ D o = dX{ n F } = <XY U J.@.} } $.U ! ^ ",
"d o.=.o.&.M. XrX6.r 5 t 0X,.[ 2 P K ;.I j #.K #.z w fXk Z O.& * r dXk L K } J.r.J J L | | | A.x [ } ",
"F F F A S.k.n H <.7.y.AX+X .e.s A } &.[ j +.j ' K p.}.9.p.t I.9.8XM.B.@ z { E ,.+X3.b 1 X.b K n | A.",
"k c p a l P.S.6XwX8X}.%XnXd L A K b D.[ j K g j ` d g.PX%X>X-X[.3.].IXZX;XB.8.`.aX6.#.~ :.c d +.k n ",
"b.6.6.P.oXMXM.l k C 1.z mXH b Z D G.6X1XY P C %.>.W { FXc.x.x.|.L.*XV.b.v.].wX.Xl.g K c n K #.O.A.J.",
"|.XXiXXXx.pXz.| @.-.a y OXA.j F d  .E.N.| | z [ w tX:X3.v..XzXbXt.'._.r.7.dX<.<.p.L &.[ [ } P Q $.n ",
"wXP.A.l x iXE.z ..j V z J m.@.A U H k J $.^ D e ].~.T.~.tX5.k 4XM aXl p.n K.tXrX9Xv h X.s a w 2X5XG.",
"l | 1XG.x k.E.@.=.p =.@.N v.x 0 J n c v B t H H ].3.N.[ f j ' ` G $X6.G. .j.x oX[.4.g S 4 K 3.m.G.K ",
"F.@.$.b k.d.iXx -.q _ P G @X:XrX=XxXlXkX[.v.].=XnXi $.n ! e #.R * $Xz K.l.k Z.aXOX;X6Xr.5.0XP.z c C ",
"j.@.&.G.S.y oXk C o , / < .Xx.#XbXzXhXzXhX#X#X9.GX#XV.&XmXxXf.o M ,Xq.Y F.3XW.2.@.z.n.(.(.nX<X6 t g ",
"{ d.d.k.6.7.L.T.t : > V @ rX2.sXA.@.j h h b c l m. XnX:X_.1.P.S.i.|.7.x [ s g ~ G P 3.x.t.4X;.Q y K ",
"=.-.-.I b z [ | +.-.;.A y 6Xy x a j X.%.%.#.#.K /.u.hX`.zXzXnX`.5.6.T.C o.F j [ %.s n J ;XE.4 % c f ",
"* 2 6 F S Q W =.1 p h w v H.J K U U n c z c H D t.2.gXl l k k.I.J.&XUX>XG.M N @.D C y ;XFX{ - T $.e ",
"m m e = - < p s F e 0 v 7.J D ~ 8 2 , < , , 8 8 0Xy $.G >.o.h b k 0 9X{.*XlX:XXXB t.DXDXi p.c e 3XC ",
"mX:XZ.f.l u t # T N @ 9Xt.5.0 o 5 ; t K C 4 ; O ].c.x | #.h c L Q c R.rX9.m.].V.DXUX9.9X&X&XW.iXU.c ",
"m.m.Q. XwXaXrX.Xd. X=XGXlXFX-X&X(.(.[.kXcXcXzXkXcX:Xk q - D V ; % , x gXv r ! D B.N.iXG.! 7X#.< L.w ",
"a { l.F.!.0XY.w.P r.0XwXW.Q.~.L.9X3X!.J.@.c ,.0.x.Q.!.c * & X 9 ( m N.>XW.8X6X!.8X7X| [ S X h M qXa ",
"Q Q D 1 p L S.L.} l 0XP.l.z A.t.l x X...h b S.9XzXhXbXu.|.L.c J.f.1.}.#X[.kX[.{.1.k.T.| h.Z.P.Z.SX} ",
"6 Z Z 6 Z A H u K K D F F D V g H L :.S 0 9.`.dX+.3.U.%X&XrXPXZ.~.6XT.S.q.A.1Xv A n :XoX6X!.6XI.4XL ",
"V V F 6 6 Z c u w e e 1 : - e e C 0 = ; P +X_.6.K l 5.g.h.7.'.k | D.K z c @.1XL G H '.R.@.[ P k G.H "
};
