/* XPM */
static char *_687567282183[] = {
/* columns rows colors chars-per-pixel */
"50 50 68 1 ",
"  c #2E261B",
". c #32291E",
"X c #352D22",
"o c #382E24",
"O c #393126",
"+ c #3D352A",
"@ c #3E382C",
"# c #41372D",
"$ c #41392E",
"% c #453D32",
"& c #493F35",
"* c #464034",
"= c #494136",
"- c #4D453A",
"; c #4F493D",
": c #51473D",
"> c #51493E",
", c #554D42",
"< c #594F45",
"1 c #565044",
"2 c #595146",
"3 c #5D554A",
"4 c #5E584C",
"5 c #61574D",
"6 c #61594E",
"7 c #655C52",
"8 c #695F55",
"9 c #696156",
"0 c #676058",
"q c #6D655A",
"w c #71675D",
"e c #71695E",
"r c #756D62",
"t c #786E64",
"y c #777165",
"u c #797166",
"i c #7D756A",
"p c #7E786C",
"a c #80766C",
"s c #81796E",
"d c #857D72",
"f c #897E75",
"g c #898176",
"h c #8D857A",
"j c #91877D",
"k c #91897E",
"l c #958D82",
"z c #988E84",
"x c #979185",
"c c #999186",
"v c #9D958A",
"b c #A1968C",
"n c #A1998E",
"m c #A59C92",
"M c #A99E94",
"N c #AAA196",
"B c #ADA499",
"V c #B1A59C",
"C c #B2A99E",
"Z c #B5ACA1",
"A c #B9AEA5",
"S c #B6B0A4",
"D c #BAB1A6",
"F c #BDB3A9",
"G c #C0B6AC",
"H c #C2B9AF",
"J c #CAC0B6",
"K c #CDC3BA",
/* pixels */
"gNl9gxvvkvkxcxvlvcj7ZVBbbVMMbMzc4kSNvNvNnmNmlCNNvc",
"jvj7jxvlmvvxlcvlkkd5zzbczmbMbMbb6NCvNvvxvvvxxNcvvv",
"vch7vxNxkglvkkkgtw3o&<raffkfjzzj-BNvNvvxvvBvmnxnkx",
"jpq,pdhgpy97=$quhjkdafjfwww7q77:-nNnvxvNxxvxmkkvkx",
"31**16604q29-%xSmMCACCBbGMVbMbj8$qcnjdatkspihpdsey",
"lvlvvNvNhNlvs2kCCVMmmCAVMbVMVMz75:2>&,57212>$O16hh",
"hxvnvvcvvnkhd9evbbbbbvbvbzzvfvf3idjcczjahxvx66xnvv",
"xvNvvkvvvxvxvd2smmbjzfkbzfaa<5,.sNzkbkbvvvhx6rnvcx",
"klcvvvvvvklxclr-,qw<r8affaszfjf&dbbfbbmkvkvgw9kxcc",
"vvxkkkxckcxd9666#aAGGGVbMMbMMbmafkzkkdvjxhxkaevNcc",
"hlccxlkkiq9rdxvkqfVMlmMMzMMBmbbao&<85&fknkvhq7khzc",
"vnvxgu96kghxvvvxaMbVMMbMMVBbzvvz7jzza%<<356>*4nxbc",
"ir99qpcNlkvvxxvv5AzmMbmMzzbbbbvz5mBMGMVCCng9>9SCNN",
"9eslcvkkBvkkvvhq:GMzblbzMvMMMbjf<mAbCmNSmNBSv9ye55",
"cvxcxxvvkxvvcvs6#fAVAmvff<78<&&,$eCVCNNBCBvnh$5whj",
"lxvvvclllcckggy-<#8<<58w7&aMMbzzg9kxzbvvxNhkh>ykjj",
"7we9,63w77752<7wfbbflMZMbf7Nvkncc36lbnndsgge>=>,76",
"pdpu3$yxBMVCCCCAMVGVBZZVHb2cvjkgy-;9963=--rsknkrhk",
"hvvvl1NBVMNCZCMMVVMVNmnmBz<9y77qksdxvxkk06mvcnnkcc",
"lvvlk9ZbZZVMVmbcMbbMmvbMMMw#7wlnjlxvvcxcs2vkkcnxcv",
"jhvxsuBZCCVMMnbbzzzzcbvvcci;vnnhcnnvvclxg>vnnvxkxx",
"vhvj7<uCbbmbczzzzbbbbbvlcu7$hlnvkcxkxxlxh4kvvkkvzz",
"xipq,%:tzzzljlcvbbzjhhfd3-33yxvnnnvlkkhhw$*4yghkkk",
"->rxGNdw&&&%-3qyq3:%@+++$$>1+e661>>-=->;1>>2>>>164",
"i2FncZNNCvgyr393#5azzjjjnkvvvBkNpgpi-invCVVCSBvxlc",
"r,ZNNmNbNNvxvnCd#mBzzzzcnnnvvkxvvvlx7gBNVVBNBBBNNB",
"a-ZmNnNMmmBNNNNe#Bbjbbzmxcklmhmxvvvv3pCZVMNNNNBBBB",
"k-ZvnmvMvvvxxlxg.bcbmzkmlvklxgvjvhkvehSmVMmNvvmvxv",
"p3xNvvlxcvnlNvjjokbbzczflvvnxxxmvklk5eMBMbbbxlxxjl",
"%;1gllSBNNl9ur5>#wkblhbnxjgchkglxlhwO#65waffkgpp;,",
"40;*;*1*3-1-7gmVb87tVVcge0,93@%->24wsjd:&:##77;1;,",
"xxNrhlyp6>cDVNVMVbM8956yehhvg*dvgnNmBVBfMj:&gnlcjv",
"kvvvgvlkx-lNBNBmNCNv2vNvxvvgqkBBkCFBMVMMma$snnhncc",
"kxxnknvvc4xCNkxvvNvx9xkshhg9iBSNNnnnVVMVc&3nhvNxlx",
"xxkxlvvvcwsvxdggiq61$646p;O1BSNNckcnbbzj7=dchlxkxl",
"hxxnnxkkvy%;-3equphxvnvNxh9OgNNnbnMvkzza%sNcvlgvcx",
"kvllxgcnhi4kvnvxvkvvnkghnvu$gnvxMbzjffw# 2euqilhjh",
";99yhphhvsqvvjxvvkkhxvkNdxh2uxg9a8,=&:<53>O%O%2-22",
"vx2O-=674-2gsruppshhghuusre1+.$5>wdzbzbmxk91hvvmxx",
"xvyqvcNxgupi763*49iu9e99953$=kNlcVmzbbzckvg=hnkxvv",
"xxv7vnmkcvlmvkh>yvcnvvcvlxcy+unvczbmbzzzhNp,clkvlc",
"llhwhkkvxxgxvvk;lnlkvvvxnkkp-yNvmckzcMmcng2$9rpgdz",
">962-46gkvxckkh20hvNvxvvmkch,>vnzzzkzzzbg3whsp6>76",
"kvggdl6=29qq994.pkxvkvvhllnns-hmcbbcmMckg4xZNCBCj8",
"xBCNvmgyvvxllkr$svkvlnvxmnlgh%8sabMfisr5*Oughggkzw",
">19rdgq,upuuyq,.;yeuusidydddk%$>,:5a91253-0*3>34w8",
"jhs2$19iqpgghhdgir*Xqywq721=>+>8e#5CJFDFNvvkvvnvfb",
"kNmgwnnkxcvcvvlnvvs2CvBNNkmmMvhw&&dGNvBNCZNBNnNvMM",
"xBvggvxvnncklvbzbbj<NMMMMmVMbbmM88HGGMmbmvMVVMVzVm",
"kNxygvxvvvvzzbckbbj<VMMMMnNMbmnmq8GBMbbmMbMZVmBfBv"
};
