/* XPM */
static char *_687507480217[] = {
/* columns rows colors chars-per-pixel */
"50 50 240 2 ",
"   c #000302",
".  c #000906",
"X  c #010609",
"o  c #010C0B",
"O  c #090B0B",
"+  c #051204",
"@  c #03120D",
"#  c #09140B",
"$  c #05180C",
"%  c #0A1A0D",
"&  c #081704",
"*  c #111C09",
"=  c #040E12",
"-  c #0A0D15",
";  c #090C18",
":  c #110E1C",
">  c #100F14",
",  c #021313",
"<  c #091314",
"1  c #011A15",
"2  c #0B1C12",
"3  c #041519",
"4  c #0B131B",
"5  c #011C1B",
"6  c #0A1C1D",
"7  c #111717",
"8  c #12131D",
"9  c #141B1D",
"0  c #19191E",
"q  c #161A15",
"w  c #0C2409",
"e  c #14230B",
"r  c #172A09",
"t  c #0C2414",
"y  c #02221E",
"u  c #0B241C",
"i  c #0B291B",
"p  c #092716",
"a  c #1B241E",
"s  c #1A2C1A",
"d  c #142719",
"f  c #0C311E",
"g  c #053D1A",
"h  c #1A321A",
"j  c #153518",
"k  c #0D3A06",
"l  c #28391A",
"z  c #2D3909",
"x  c #160E23",
"c  c #1B0E28",
"v  c #1A0D24",
"b  c #0C1422",
"n  c #021D22",
"m  c #0C1C24",
"M  c #0B1B2B",
"N  c #061827",
"B  c #141223",
"V  c #1A1326",
"C  c #131C22",
"Z  c #191C22",
"A  c #1B122B",
"S  c #131629",
"D  c #1E0D31",
"F  c #0E1E32",
"G  c #1C1D32",
"H  c #1C1538",
"J  c #0D0D27",
"K  c #21142E",
"L  c #241426",
"P  c #241334",
"I  c #251834",
"U  c #26183B",
"Y  c #351B3E",
"T  c #012424",
"R  c #0B2524",
"E  c #022A26",
"W  c #092A26",
"Q  c #052628",
"!  c #09222D",
"~  c #012C2B",
"^  c #0C2B2C",
"/  c #142E23",
"(  c #13252A",
")  c #122C2D",
"_  c #1A2B2C",
"`  c #192827",
"'  c #0C3327",
"]  c #01332D",
"[  c #0A3229",
"{  c #063A2F",
"}  c #1C3324",
"|  c #13312B",
" . c #163725",
".. c #032E32",
"X. c #0D2334",
"o. c #192838",
"O. c #033232",
"+. c #013538",
"@. c #003C3A",
"#. c #153235",
"$. c #113F3F",
"%. c #253A24",
"&. c #20362B",
"*. c #283924",
"=. c #313927",
"-. c #262A38",
";. c #35273B",
":. c #233533",
">. c #293A36",
",. c #393636",
"<. c #2F2C29",
"1. c #4A323B",
"2. c #16440A",
"3. c #175105",
"4. c #2C411E",
"5. c #344717",
"6. c #3E5613",
"7. c #334C0E",
"8. c #1E4A21",
"9. c #00403D",
"0. c #144135",
"q. c #2D4729",
"w. c #374629",
"e. c #39453B",
"r. c #3D5338",
"t. c #324C2F",
"y. c #3A623B",
"u. c #424716",
"i. c #5B5E19",
"p. c #476912",
"a. c #64771B",
"s. c #485927",
"d. c #40433C",
"f. c #465331",
"g. c #605237",
"h. c #426E21",
"j. c #54692E",
"k. c #49673A",
"l. c #576B38",
"z. c #477C38",
"x. c #687F31",
"c. c #7F7D26",
"v. c #1C0E43",
"b. c #291542",
"n. c #331C43",
"m. c #351646",
"M. c #360F44",
"N. c #0F2B40",
"B. c #17274A",
"V. c #013040",
"C. c #1B3B4C",
"Z. c #1C3752",
"A. c #2D2142",
"S. c #3B224B",
"D. c #362943",
"F. c #23334A",
"G. c #2B3D41",
"H. c #3C2957",
"J. c #323956",
"K. c #273368",
"L. c #421C55",
"P. c #480759",
"I. c #582C48",
"U. c #43384B",
"Y. c #4A2F55",
"T. c #543F50",
"R. c #6C364B",
"E. c #743748",
"W. c #763851",
"Q. c #783A53",
"!. c #491263",
"~. c #640F75",
"^. c #563663",
"/. c #69237B",
"(. c #6A3A6C",
"). c #104440",
"_. c #08484C",
"`. c #334641",
"'. c #3C504F",
"]. c #37475E",
"[. c #314C6D",
"{. c #35506E",
"}. c #3D5579",
"|. c #4D514E",
" X c #4A4A52",
".X c #554A5B",
"XX c #575D54",
"oX c #4B4E4C",
"OX c #537844",
"+X c #556D53",
"@X c #617C5B",
"#X c #554766",
"$X c #5E5869",
"%X c #5A5F72",
"&X c #614E6C",
"*X c #685966",
"=X c #675473",
"-X c #70517D",
";X c #6C4A6F",
":X c #4A7064",
">X c #69776A",
",X c #727061",
"<X c #747D78",
"1X c #89784D",
"2X c #5A8631",
"3X c #7C943D",
"4X c #678C38",
"5X c #598A4D",
"6X c #728358",
"7X c #6B8452",
"8X c #5C8462",
"9X c #6F9B77",
"0X c #70926D",
"qX c #77A56C",
"wX c #8C923C",
"eX c #8BBA3D",
"rX c #86A23E",
"tX c #A2BF27",
"yX c #CABC28",
"uX c #B9C329",
"iX c #878749",
"pX c #8FAA50",
"aX c #898E6F",
"sX c #9FAD72",
"dX c #8EB06F",
"fX c #B1CD54",
"gX c #C3CA4E",
"hX c #1F2F87",
"jX c #152C9E",
"kX c #263698",
"lX c #6C1286",
"zX c #6B1A84",
"xX c #73178B",
"cX c #7C2A93",
"vX c #732E91",
"bX c #274083",
"nX c #525B96",
"mX c #557889",
"MX c #4A6D81",
"NX c #873198",
/* pixels */
"7 0 Z 0 9 9 C Z 7 9 9 C 6 9 C R 0 0 0 0 0 0 0 Z Z Z Z 0 0 0 0 0 9 C 9 0 0 0 q 0 C Z C 9 q 7 0 9 9 9 ",
"o = , < < 5 3 6 R R R R Q W Q W ^ O.^ ] O.] { { O.{ O.{ { O.O.^ ~ ] ] E E E W W 6 y u 5 6 1 < < o o ",
"o o o , 1 5 5 5 T E E E ~ ~ ] ] @.+.@.@.@.@.@.@.@.9.9.@.@.@.@.@.] O.] ] ] ~ ~ E y y 5 y 1 1 , @ o O ",
"< , , 1 1 y y y T E E ~ E ] ] O...+...+.+.+.+.+.+.+.+.+.+...+.+.O.O.~ E E E E T T T y 5 1 1 1 , 2 < ",
"- < < < , 1 5 y y T T E ~ ~ ..O.~ ^ ..O.[ O.O.O.O.{ O.O.~ O.[ O.O...^ ..~ W Q Q T y 5 1 , 5 , 1 = @ ",
"X = < < , 5 5 5 T T E E E ~ ~ ..] O.] ] { O.] { { ] { ] ] ] ] ] ] ] O.] ~ E E E T 5 5 3 , 3 3 < . . ",
"X O < 1 5 5 y y T T T ~ ~ ~ ..~ ] ~ ] ] ] ] O.] ] ] O.O.] O.] ] ] ] ] E ~ E T T T 5 5 5 5 3 3 = o . ",
"o @ , 1 y y 5 5 y T E T E T E ~ ............+.O.O.+.+...O.......~ ~ ~ W Q T T T T T n n n 6 , , o o ",
"o o o , 1 5 T R 5 n T T E ~ ~ ~ ] ~ ] ] ] ] ~ ] O.O...O.~ ~ O...~ ~ E T T ~ T ~ 5 5 R u 6 5 , o . o ",
"o o o = , 5 y R T T n T T ~ ~ ~ ~ ~ ~ ~ ~ ~ ] ] ......O.......~ ~ E E T T T T n T y 5 5 1 , @ , . . ",
"X o o , , 5 5 y Q n T T T E E ~ ~ ~ ~ ....~ ~ ..~ ~ ..~ ~ ~ ~ ~ E ~ E T E T T n R T y 5 1 @ @ o . X ",
"o o o , , , 5 5 Q T T T T T E E ~ ~ ~ ~ ..~ ~ ~ ~ ] ~ ~ ~ ~ ~ E ~ E T T T T T T R y 5 1 , , , o . X ",
"X X o , , , 5 5 5 T W Q T T T E Q ~ ~ ~ ~ ~ ~ ~ ] ~ E ] ~ ~ E E ~ T T T T Q Q Q 5 5 5 1 , , @ , . . ",
"X o o , , , , 5 5 n Q W E T T E T ~ ~ T ~ ] [ ~ ~ ~ ] ~ E E E E E E T T T Q Q Q 5 1 5 5 , , o o o X ",
"  X o = , , 3 , 5 n T T W W E E W W W ~ [ E [ [ ' ~ ~ E E E E E T T T T T T T T 5 5 , 1 , = o o . . ",
"X X = , , , 5 5 5 5 5 y E W ~ W W W W [ [ [ [ [ [ [ [ [ E ~ E E T T E Q Q T 5 5 5 5 3 , , @ = = . X ",
". . o , , , , , 1 y y T T R ^ #.k } ! g k j ( $.' ' [ ^ ~ ~ W T F T T y T n T y 1 1 1 , , , o o     ",
"X . o @ o , 5 5 $ 1 5 y y i f j a 0.| $.:.$.f /  ./ | ^ ) ) ^ ^ Q T y E n n 5 $ 1 1 1 , , , = =   O ",
". . o @ , , , 1 5 y 6 u i i j j >.8.2. .o.8.2.z &.&.} _ _ ( M m +.^ W T n b b 7 1 1 @ , o o X X O   ",
"X o o o = @ 1 1 1 1 u i i j j %.0.q.4.t.k.l.l.k. .j  .| #.#.#.#.G Z B 5 n n 5 y 5 5 1 , , , o X   . ",
"  . o o o @ 1 1 t t t / } }  .0.3.4.s.4XeXrXj.q.q.%.&.` ( _ _ o.M m m C ! M 4 7 , 3 , o = = , o . . ",
"X . o o + @ 1 $ t t t h j d %.*.'.4XtXuXsXmX:Xa.r.e.=.&.:._ _ _ _ Z 0 b M M S V n n n , = , o o .   ",
"X X . o @ @ $ $ t t r h z 7.7.s.6X7XwX1X0XmX:X%XE.E.R.R.W.W.W.W.E.E.I.1.C._._.).#.#.X.m 3 6 < o     ",
"X X o . @ @ $ 1 R W q.6.j.4X3XpXpXuXyXwX>XXX+X5XXXXX|.|.|. X,.,.,.1.1.J.Z.Z.X.B n n 5 = o , , X . O ",
"X . . . @ # $ % w t r q.q.OX7XaXgXgXc.i.f.XX>X,XXXXX X X X#X.X$X*X.XR..X_ +.o.J b 3 3 = = o o o     ",
". . . + # $ 2 2 r l >.e.e.@XpXfXfX7Xj.`.;.0Xw.e.*X.XU.&X;XY.m.&XI.I.;X-X].Z.F.G m b ; ; = o o o     ",
"X X . . + . & & ( %.7.p.2XqXdX0X7X@X>Xf.4.<XU.*X.X*X.X.XnX^.m.#X/.(.nX#XU.o.G ; b 4 3 = = o . . .   ",
"X . # 2 a *.q.w.6.6.7.k.8X9X0X5Xj.s.u.z u.g.(.cX/.NXNX/.NXNXcXxXNX/.Y.v.A.b.A 6 4 4 = o o X .       ",
"O . . . + + + & _ l z 6.y.z.8XqXr.r.4.l ,.<.^.vXzX~./.xXlXlXlX~.~.!.H H U Y L a 4 4 = = o o X .     ",
"    . . . * * e & w w.s.h.y.5X9X:X{.K.{.MXnXH.Y -.c n.H.m.M.Y.M.P.P.b.U D P > 4 4 < = o o o         ",
"O o O . . + + # r * r e s y / &.Z.C.{.bXjXK.M >.U I n.b.m.M.S.M.U U K K c c x 4 - = X X . .         ",
"      . . . # # 6 # q * s w s e ` _ J.B.hXkXK.,.-.-.-.D n.P U m.H v L 0 P J S X - - o o . . . .     ",
"      . o + @ o + & % % % & % w a a ( o.B.F.F.F.o.-.U U P P P I I P V x B b ; 4 - o = X X X X       ",
"      . . . o # @ # # # $ % 2 2 2 2 5 M F X.F M F S S c c c c B K A V B 8 ; ; 4 - o X X X X   X     ",
"      . . o + . @ # o # @ 2 2 2 % < , 3 N b 3 ; b J x x x x x x x c V 8 ; ; ; = o = X X X X X       ",
"    .     . o . . o o @ < < 1 < , , , 3 , 3 < < 3 4 4 B : : : : : : : 8 4 ; = = X X X X   X         ",
"          . . . X X O = , < , @ @ , @ , , , < @ = < = - - - - - ; - ; : 4 < = O X X X               ",
"            . .   o o = < O o o o , , o @ @ o O = = = = O - = X - O o O < ; - o o o   X X           ",
"                X o O , @ o o o O o @ @ o @ o , = = = = o = = = o . o o O o , = o X .               ",
"                . O # @ . . . . X . o o o o o @ o o o o o o o o X X . o X . o < o . .               ",
"                O o . . . . . + o o o o o . o o . . . . . . . . . . . . . . . . O .                 ",
"            O O o .   .   . . o . o . o . o o . . o . . . . . . . . . . .   . . X O O O             ",
"            O O .   .   .   . . . . . . . o . . . . . .   . . . .   . . .     .   . O O             ",
"        O > O         . . . . . .   X X . . X . . .   .   . .     . .   .       .       O O         ",
"        O O               . . . X X X . X . . X .   .             .             O       O O .       ",
"  O O O                 .     . X X   X   X   X                                             O O     ",
"    O O                       .       X X   X                                                 O     ",
"O O                                                                                             O O ",
"                                                                                                O   ",
"                                                                                                    "
};
