/* XPM */
static char *_687567309581[] = {
/* columns rows colors chars-per-pixel */
"50 50 143 2 ",
"   c #1C1714",
".  c #1D1B14",
"X  c #1F1E19",
"o  c #201710",
"O  c #251C14",
"+  c #2A1E16",
"@  c #251D1A",
"#  c #291F1B",
"$  c #2B2216",
"%  c #25231D",
"&  c #2C231D",
"*  c #2F281E",
"=  c #302215",
"-  c #31251E",
";  c #322A1F",
":  c #3C2A1C",
">  c #262322",
",  c #2D2522",
"<  c #2E2923",
"1  c #29272A",
"2  c #2E2A2A",
"3  c #312623",
"4  c #332B24",
"5  c #392D25",
"6  c #312728",
"7  c #352C29",
"8  c #392E2A",
"9  c #373026",
"0  c #3A3126",
"q  c #36312B",
"w  c #3C332C",
"e  c #392F30",
"r  c #3E3532",
"t  c #3E3934",
"y  c #473425",
"u  c #42352D",
"i  c #4A362E",
"p  c #44392F",
"a  c #4B3D2C",
"s  c #423632",
"d  c #483731",
"f  c #443B34",
"g  c #4A3C35",
"h  c #453C3A",
"j  c #4A3E3A",
"k  c #523D36",
"l  c #523E39",
"z  c #4B4136",
"x  c #46403A",
"c  c #4C423C",
"v  c #4E483C",
"b  c #554236",
"n  c #52433D",
"m  c #59433C",
"M  c #53493E",
"N  c #5B4B3D",
"B  c #4D4341",
"V  c #4F4942",
"C  c #534642",
"Z  c #5C4741",
"A  c #544A44",
"S  c #5B4B44",
"D  c #514748",
"F  c #564B4A",
"G  c #5B4E4A",
"H  c #5C5245",
"J  c #575049",
"K  c #5C524B",
"L  c #5B4F50",
"P  c #5D5352",
"I  c #614C46",
"U  c #644D49",
"Y  c #6A4E4B",
"T  c #615346",
"R  c #63534C",
"E  c #69544E",
"W  c #64594C",
"Q  c #6A5A4D",
"!  c #625552",
"~  c #6A5651",
"^  c #645A55",
"/  c #6B5B54",
"(  c #655B59",
")  c #6A5E5A",
"_  c #715D56",
"`  c #765E5A",
"'  c #785F5B",
"]  c #6E6256",
"[  c #6D635C",
"{  c #716356",
"}  c #74645C",
"|  c #7A645D",
" . c #75695E",
".. c #6E6462",
"X. c #716764",
"o. c #756B65",
"O. c #7C6C64",
"+. c #766C6A",
"@. c #796F6D",
"#. c #777060",
"$. c #757168",
"%. c #7C736C",
"&. c #7E786C",
"*. c #897A5D",
"=. c #826D66",
"-. c #817567",
";. c #83756C",
":. c #867A6E",
">. c #8A796B",
",. c #837772",
"<. c #8B7770",
"1. c #847974",
"2. c #897D72",
"3. c #867C78",
"4. c #887E7F",
"5. c #8A8075",
"6. c #8C827C",
"7. c #928374",
"8. c #95877C",
"9. c #91887D",
"0. c #8F8882",
"q. c #908684",
"w. c #958B84",
"e. c #9B8D81",
"r. c #958B8C",
"t. c #9B8F8A",
"y. c #9B9084",
"u. c #9B918A",
"i. c #9E9492",
"p. c #A18F81",
"a. c #A29283",
"s. c #A3938A",
"d. c #A5998D",
"f. c #A89B8F",
"g. c #A39997",
"h. c #AA9B94",
"j. c #A69D98",
"k. c #B0A18A",
"l. c #B0A295",
"z. c #B2A499",
"x. c #BDAFA4",
"c. c #B7B0A0",
"v. c #CFC1A7",
/* pixels */
"& 3 3 , # & 3 3 + 3 = 8 g R g 5 M W 4 & w 7 C P x c K ( ^ V 5 * 0 * 5 p q 0 t 8 1 h 3 & t 4 % h s 8 ",
"A X.,.,.,.q.,.) g # # | t.s.` k 5 u H / 8 s w.0.&.] ] $.w.u.P * + v X.[ P K ( ..4.3.P 8 + f @.r.4.3.",
"^ P F A C C F ! 4 & m 4.;.~ Y =._ ~ <.,.4 5 $.J V J ^ J ^ [ A 0 4 G ) F x h j h x h A v 3 B +.L S D ",
"G j f B B f B ! K 4 8 ! / ~ ~ Y I ~ / ~ f h ^ V B A K C A ^ A f h P F t h A B h L j F C 6 B +.B C B ",
"j B D B D F D C D w f L U ~ ' _ I ` / Z s w h V A C J A J W h 4 5 B B h B B h V r h C C 7 w F B D D ",
"D D j B B B B C h , 8 j G S ~ ~ ~ ~ R n 8 4 s h x c F A x x w w t j v B B h h V h h 7 5 7 8 B L C D ",
"s 6 e l D j s B r , 8 8 j s M S / Z n f 3 < < < 0 * - $ 4 0 4 ; 9 * < 4 e r x h h h 6 4 w 0 7 1 7 7 ",
"6 s e , 6 e 6 , , < 2 @ 8 7 0 4 4 5 5 < 5 5 4 C < 5 w 4 4 0 4 4 5 ; 5 0 3 7 0 2 1 e 6 4 4 4 r 7 8 8 ",
"Z ! Z S v - + 4 = T T N W H N { W H R n u ; 0 $.^ 5 0 s %.%.F ( F P ( ( ( P D 2 5 & t H ( [ K v Z C ",
"m Z } %.9.C * 4 T y.f.5.-. .W W W ] T _ h.w.f 2 r * %.j.....i.t ......@.r.g.i.r.< 0 K ( J c r f f h ",
"b p g c ] v + 0 N H v a a z z S H Z U / { O. .5 $ v 3...P ( X.X.P P P L P P X.$.t w M A v c w w f f ",
"p n p d n [ < h W z u z M n n M g T M l S ~ / f 4 r [ A ( ( L @.L P ( ( L D L P 4 0 A C w f c A f h ",
"u a w u u ! $ r n A S S n n n u g I N I E R K 4 7 8 D ..( F +.L ( L D L ( P P L w 4 p c A J z 5 z h ",
"A d j u c s 4 h M c j j g c A Z N p Z E g c R 5 , s ( ! ( P ( P ( P L D F P P P 4 f K J h r f v x z ",
"g 5 g g c - 3 6 Z j g A G n g j z M g g ~ W w q 8 , +.( L ..P P D L D B x D P P f r v h s c j h h h ",
"d u d g 7 3 r 7 4 j A d d h j h z 0 b g w z 0 < 6 r 2 2 D h D L L ( P F L P K B 4 5 s f 0 s w 8 w p ",
"& < % , % V $.r 8 @ , 7 o % r # * & < 4 4 6 4 3 3 # % 6 2 , 1 2 7 , , 8 h h h s 6 # 7 2 , 6 # e 6 3 ",
"< 6 < q , w A 3 e s 6 3 B B # 7 4 4 3 * - # # 3 - 8 5 6 # < , 3 + 2 w 8 7 e 7 , 3 3 3 # t # > 3 6 3 ",
"w w < w r w j < , D B # B D # < 8 s j A F L ( X.u R G K n s @ 3 0 c C M C P P G p K 3 # O 0 f t 8 8 ",
"A ^ P +.6.6.@.G f % @ 8 8 % w F ^ ( ( ^ P L Z D S ~ / | ;.j + u y.5.#.^ ! W A c [ 2.A 0 w 6.u.[ } [ ",
"J G h s G ~ X.X.,.G # 7 - 6 ] P h g d B B n B j Z n l m -.d 5 n ] n u y z x t t M H 6.0 t W 6.v c g ",
"w r f c B s h G o.t./ 3 4 F X.f Z C h d j l l j d l l u ) n 0 g W z u z z w t x x z y.J 9 9 J w j h ",
"n j n Z g s h G u K S w j S C c A n j j j B B B f F A n K v 0 g m g p x x 9 q x z w z f r v A s f s ",
"j d B f f C l f n d n 8 g / j n h g l B l j d d h G f A u w $ H n g f f f x x x w v f $ p 7 F x s f ",
"j B l d d g h h s n f 8 M S c n C h j l n j w f Z Z S C w w 5 d v 9 f r f t B e h c v 4 0 c A 5 h f ",
"l j h d s f B D B ! c & 8 A B s h n C Z n g n A G B v h s 8 - 8 9 t v f x f B h 5 v j s * w t z f s ",
"h h j h f r r t j f 8 & 7 f c c j h s G L A A C c h z s w $ + f w J F q x t t x c h $ & 6 x t C w w ",
"e h s s r x c h w 4 - 4 , 3 7 8 & 3 # 3 8 h t 5 6 * $ o 4 * f +.% q t t V h q q * * 4 ; c 4 4 c 5 5 ",
"$ $ & 4 ; % + o $ 4 5 & + 4 9 $ + = r & @ 8 6 5 O O 4 w ! c 7 h q > , r 9 * < 4 4 $ < j $.A 4 $ $ & ",
"J 9 + # * + * p 0 u u 5 0 u g M a $ 0 v c 6 O 0 S u 8 # u - - u w $ % 8 O 4 0 4 4 0 7 j 0 4 $ h w r ",
"9.^ 8 # 8 J 2.f.l.f.a.f.f.8.8.x.v.7.; ; 8 s O.e.) U ) C U A ~ o.%./ 5 O 9 &.s.f.$.^ h z f V A ] &.&.",
"H H f 3 d ~ } T I Q T N T W Q >.*.k.N & - M 8.b S d U j U Z S M n / u 5 W l.7.H ^ A J A K C J v v v ",
"V v < < S ] R Y E U U R ~ ~ E G N { E = 0 C L l Z C Z C C C C C A G h < q %.V z x v V A J J J A F F ",
"V v 0 9 J } E E S U E E ~ E E E T _ R w w j F F C l n j l C n Z n A x * 9 ^ h g v A J A V A J v A A ",
"G K x w S / E U Z S T U I S S I E T b 4 f s C C C C A C Z C C Z C x f & 9 J v A A J J J J V A V F A ",
"K P c 0 g U R U n m I I U E E E S E C < 0 h A C C C C n B n h B P f 5 $ 9 V n J V A F A A J J J c v ",
"B B r * 0 A R ~ I S S I I I N M F G n 3 4 3 s j C C B B B B B n H t 4 $ 4 5 0 r t t h h x x x v G G ",
"s w 7 % 7 c H J S S S S S S Z l ~ d 4 3 s % # 4 s s s s s h h j 0 9 5 w * & * 4 3 < 2 , < < 8 q s s ",
"8 , > % % q t t w s j B F K ! ! ~ e < r G w * 4 # , # , , , , , % * 7 c 3 4 4 4 % # # , % , , 2 6 6 ",
">   X > % * * * , 3 7 7 4 4 6 6 # # 7 r x , - 8 7 6 6 3 3 , 3 , 9 9 & c 3 w 4 * < , , , , , 6 w > # ",
". & 5 5 + o . %   # # @ @ # > , O 0 a y u n / | =.=.=.<.| s $ * a 8.a.e.:.] H v w c M z #.v ; z # , ",
"% 9 n m k 4 +   , , # # # @ @ 3 d R  .} Q T m i Z Z k I _ W f 4 m >./ T H J J S ^ ! J { c.9.M o > , ",
"q f m I N g u 5 6 , @ # 3 # , e Z Y Y I m Z I S m m k l S H f * E =.Z C S K J J ! ! S K 5.5.K w > 1 ",
"g b m b m k l k 8 7 # & , 3 6 B l I Z l b m Z m i Z S Z S S x 9 k / F R G A C G C F v A ] #.W w X , ",
"n l m m m k k k k c s ; # , 6 f m m I I I Z m l k k k k E K s 2 d U F G C C n ! D U R R H / A 0 = 5 ",
"m m k m m m m m m S g 4 , , 7 s Z l k k m Z Z I E m k l G C w < F ! G G A S C S G G G C H H M s : a ",
"m m m k k m I I m b w * , , 6 s l j C I U Z m l n m l n C j t t C F A Z c S g j L C C S ;._ n # $ y ",
"I I m b k k k k m i - # , @ # 7 3 3 5 h Z D Z U n I G l C x q 7 h n n C n R I I C G ) / O.g u 5 & f ",
"G Z n j d g l m D f , @ j n s w 0 4 < 7 t f t 8 7 7 7 7 7 7 7 7 w 0 9 7 4 9 q q q q w x c h q > 2 2 ",
"3 # 3 - # - u d d 7 , , c s c K A f 7 6 2 7 6 3 6 6 6 7 7 4 7 4 0 8 5 6 4 9 9 9 4 < 9 w f r < X @ % "
};
