/* XPM */
static char *_687507474858[] = {
/* columns rows colors chars-per-pixel */
"50 50 233 2 ",
"   c #010303",
".  c #010906",
"X  c #010709",
"o  c #020B0B",
"O  c #080B09",
"+  c #031404",
"@  c #04120D",
"#  c #0A140C",
"$  c #07190E",
"%  c #0C1B0D",
"&  c #091605",
"*  c #111F0C",
"=  c #040D12",
"-  c #090D12",
";  c #0C0E1B",
":  c #02091B",
">  c #130C1C",
",  c #140716",
"<  c #021413",
"1  c #0A1314",
"2  c #011A16",
"3  c #0E1C13",
"4  c #03161A",
"5  c #0A121B",
"6  c #011C1B",
"7  c #0B1C1C",
"8  c gray8",
"9  c #111D11",
"0  c #12111F",
"q  c #111C1B",
"w  c #1B1D1D",
"e  c #0E2104",
"r  c #13210D",
"t  c #17290E",
"y  c #003600",
"u  c #0C2414",
"i  c #01211E",
"p  c #09251B",
"a  c #07281E",
"s  c #0E2A1A",
"d  c #0C2F12",
"f  c #142213",
"g  c #162914",
"h  c #1A2B14",
"j  c #142319",
"k  c #1C211E",
"l  c #132D1B",
"z  c #182617",
"x  c #1A3317",
"c  c #0A3019",
"v  c #233A0A",
"b  c #25390A",
"n  c #223311",
"m  c #233D15",
"M  c #273A1A",
"N  c #2B3016",
"B  c #0A082A",
"V  c #180E27",
"C  c #160E25",
"Z  c #0E1120",
"A  c #011E23",
"S  c #0A1A27",
"D  c #131323",
"F  c #15132A",
"G  c #1B142B",
"H  c #1B1A27",
"J  c #081832",
"K  c #161D32",
"L  c #1A1B31",
"P  c #161536",
"I  c #261A2C",
"U  c #291738",
"Y  c #270F31",
"T  c #012423",
"R  c #0B2524",
"E  c #002926",
"W  c #0E2C21",
"Q  c #02252D",
"!  c #012C2A",
"~  c #0B2C2C",
"^  c #132122",
"/  c #1D2323",
"(  c #1C2929",
")  c #0A3524",
"_  c #00322E",
"`  c #1A3825",
"'  c #032333",
"]  c #0B2137",
"[  c #032F30",
"{  c #082A39",
"}  c #1A2836",
"|  c #013432",
" . c #023935",
".. c #043B38",
"X. c #193830",
"o. c #242625",
"O. c #252826",
"+. c #262A29",
"@. c #282929",
"#. c #262526",
"$. c #322428",
"%. c #2A3627",
"&. c #232434",
"*. c #252936",
"=. c #2A3433",
"-. c #3A3637",
";. c #12511C",
":. c #105516",
">. c #2B4509",
",. c #2A4405",
"<. c #334B09",
"1. c #3E550B",
"2. c #2D4114",
"3. c #2A4218",
"4. c #354C1C",
"5. c #364D19",
"6. c #2C5312",
"7. c #395E19",
"8. c #127616",
"9. c #257C1B",
"0. c #1C4E35",
"q. c #364A21",
"w. c #324027",
"e. c #2D5623",
"r. c #275529",
"t. c #274B3E",
"y. c #36453A",
"u. c #345239",
"i. c #344F27",
"p. c #1B612D",
"a. c #34612C",
"s. c #296D30",
"d. c #30643D",
"f. c #29793E",
"g. c #455D19",
"h. c #455207",
"j. c #587209",
"k. c #596B19",
"l. c #456114",
"z. c #607E00",
"x. c #747600",
"c. c #627616",
"v. c #43562B",
"b. c #424625",
"n. c #59772C",
"m. c #5A6C37",
"M. c #4E7139",
"N. c #597B3F",
"B. c #697E31",
"V. c #717E36",
"C. c #191B42",
"Z. c #2D1443",
"A. c #2D1B45",
"S. c #251B43",
"D. c #331B4A",
"F. c #37144B",
"G. c #2F1855",
"H. c #242241",
"J. c #2B2245",
"K. c #202A4D",
"L. c #29344B",
"P. c #343445",
"I. c #292758",
"U. c #302C5F",
"Y. c #2F3650",
"T. c #373A56",
"R. c #352846",
"E. c #21106C",
"W. c #2C1F77",
"Q. c #1D2B74",
"!. c #372464",
"~. c #2C3466",
"^. c #2F2772",
"/. c #332D78",
"(. c #2C3475",
"). c #373A71",
"_. c #472B5B",
"`. c #4F1A72",
"'. c #433C68",
"]. c #443E62",
"[. c #0F5147",
"{. c #145340",
"}. c #1D5959",
"|. c #2D4046",
" X c #384547",
".X c #254C56",
"XX c #364A5A",
"oX c #2C5453",
"OX c #187D41",
"+X c #096550",
"@X c #306740",
"#X c #266143",
"$X c #374467",
"%X c #2F801A",
"&X c #259117",
"*X c #19A318",
"=X c #1E9223",
"-X c #1C9430",
";X c #30863B",
":X c #72920D",
">X c #708F18",
",X c #688726",
"<X c #7A9626",
"1X c #668935",
"2X c #168C40",
"3X c #288E45",
"4X c #2F846F",
"5X c #30896B",
"6X c #31907B",
"7X c #5F9853",
"8X c #458B55",
"9X c #6C945F",
"0X c #40A174",
"qX c #869030",
"wX c #948E3A",
"eX c #8AA73D",
"rX c #3A3487",
"tX c #2B1EA4",
"yX c #2D2AA7",
"uX c #3A3BA7",
"iX c #650E89",
"pX c #620F83",
"aX c #631487",
"sX c #6E1895",
"dX c #423881",
"fX c #5A3287",
"gX c #6A2494",
"hX c #762999",
"jX c #792FA0",
"kX c #7F31A1",
"lX c #474090",
"zX c #4544A1",
"xX c #8148AF",
/* pixels */
"/ / X O o < < 2 6 6 T E E _ ! _ _ | ......|  ...|  . . . . . ._ _ _ ~ ! E E i i 2 2 2 < @     o.o.o.",
"o./   o o < @ 2 6 T T T E ! _ ! _ | .... .|  ... . . . . ._ _ _ | _ ! E E i i i 6 2 4 o @     o.o.o.",
"o.k   X X @ < 2 i 6 T T E ! ! _ | |  . .| | |  . .|  . ._  ._ _  ._ ! ! E i i 6 6 2 < o X     o.o.o.",
"/ w     X @ < 2 6 T i i E E ! ! [ | | | | | |  .| | _ _ _ _ _ _ _ _ ! E E a i 6 2 2 < o .     o.o.O.",
"o.k     X < < 2 6 T T T T E ! ! [ [ | | | |  . . ._ _ _ _ _ _ _ ! ! ! T T T T i 2 2 < X o     o.o.O.",
"o.H   X X < 2 2 6 6 A T T E ! ! ! ! ! [ | | |  . ._ _ _  ._ _ ! E E E E T T T 6 2 < < o o     o.O.O.",
"o.k     o < < 2 6 A T T ! ! ! ! ! ! [ | [ | | | _ _ _ _ | | _ E ! Q E E T T 6 6 2 < 4 o @     o.o.O.",
"o.k   . o 2 2 2 2 6 6 T T ! ! ! [ ! [ [ | | | [  ._ _ )  .| _ ! E E E E T T A 2 2 < < < o .   O.o.O.",
"( w     o o < 2 2 6 i T T T E E Q ! [ [ | _ _ _ _ _ | [ ! ! ! ' T E Q Q T 6 6 6 < < < @ X     O.#.#.",
"/ k     o o < < 2 6 T T T T T E Q ! [ | ! ! _ _ ! _ [ | [ ! ! ! T Q ! T T 6 6 6 2 2 4 @ o     o.O.O.",
"/ H     o X @ 2 6 6 7 T T T T T ! ! ! ! ! ! ! _ _ _ _ ! Q E E E T E T T T 6 6 6 7 2 < o o     o.o.O.",
"O.w     o o < < 2 6 6 i T T E E ! ! ! ! ! ! ! _ ! ! ! ! E E E ! T T T T 6 6 6 6 2 < < o X     +.@.O.",
"/ k     o o < < 2 6 6 6 A T E Q ! ! ! E ! ! ! ! E E E E ! ! ! ! T T 6 6 6 6 2 2 2 < @ X o .   +.o.o.",
"/ k     o o < < < 4 2 6 6 T E ! E T T E E E ! E E E a E T ! E E T T T i i i 2 2 < @ @ X o     +.o.o.",
"o.w     = o < < 4 4 6 A T i T E T T E E E E E E E E E E E ~ E E T T a i i i 2 < < @ o o o .   #.O.#.",
"( k     o o = < < 2 6 6 6 T T T a T T E ) ! E E E E E E _ E ~ E T T i i i i 2 2 < @ @ o o     o.o.O.",
"o.w   O X < 1 < < < < 7 i 6 2 6 2 6 a E E E Q Q { E ' ! ) { Q y R a i T R ^ 5 : < < < o o     #.O.#.",
"o./ . o X = o o 2 2 6 T p A i T ! ' Q ! T i i T i :.8.;.W c ) ] a s ` a 2 2 7 p < o 1 = X     #.#.O.",
"o.k   X   o < o < = < 4 6 6 A 6 6 i T Q E Q ' { ~ +X-X&X;.d d } d c ` l s u $ $ < < o X X     #.O.O.",
"O.w   X X o o o < < 4 4 4 A S A p a a R i i i a _ }.3X*X=Xa.5.e.u.w.` c s u % + < @ o .       #.O.o.",
"( w   X   o o = 5 4 4 < 2 7 S S J J ] ' A i p s .X9X9XOX;X;Xr.3.v m M x l j 3 j @ @ +   .     #.#.#.",
"O.w   X X o = o < 5 4 4 S ^ ( ( y. XXXXXXX$X$X$Xt.N.M.a.9.=X9.:X<.,.v x x W j 9 $ @ . .       #.O.O.",
"o.w   X   o < o 1 5 7 q / @.-.-.'.dXuXuXyXyXtXtXrXrX'. X|.[.0.n.eX,Xl.b x x g u $ @ + . .     #.o.O.",
"O.w   .   o = 1 = 4 1 5 9 I $.$.E.rXrX^.~.Y.P.-.L.I M 6.` 3.7.@X:X>X,Xn.7.m t e $ + . . o     o.#.O.",
"o.w     o o - - 5 Z Z w z k #.$.Q.(.~.I.S.*.&.L ( ( ` M w.%.b.h.g.j.qX<X1.5.v.<.l u % @ o     o.O.O.",
"+./     O X o o o - 0 H ( &.R._.^./.!.I.S.S.J.H.P =.+.} %.6.f.}.n.k.c.j.<.3.m e e + + . X     #.O.o.",
"o.w     X X X X # 1 D ] } P !.fX'.'.'.].T.T.L.L..X-.$.=.{.0X0X3Xm.v.h.<.M M z & $ + .   .     #.#.#.",
"o.w     X X O - . : F } K.U.fXxXgXhXhXkXjXgXgXgXoXY.=.0.4X6Xu.c.v.5.>.b n z j j 3 # O X O     #.O.O.",
"@.k X   - X , 1 H K P C.C.C.G.`.aXpXpXaXiXiXiXsXP.u.8Xp.a.V.V.b q.4.2.b n r # 9 # #           k O.o.",
"@.H     X X o - : : B B B P Z.F.J.A.A.Z.Z.Z.A.A.U.y.1Xj.qXk.5.r.2.m N b n t & # # O X   X     o.#.O.",
"o.w         X O 1 0 G V V G Y Y U F.D.D.D.J.*.L ' =.wXx.l.` X.b n n h t t r * o o O o       . O.O.O.",
"O.w X   X   - 0 . O , , , 0 I Y Y U &.U X.|.t.0.r.7.n.4.` ` r $.t f z * * * 9 - . X X X     . O.O.#.",
"o.w       . 8   X o - ; > D D G V G G I G G F G S +.=.( j z z r r r r r 9 # # # .   . . O     $.O.o.",
"#.w     .   O   X . - - ; 0 D D V V G G G F F F 1 q ^ 3 3 3 9 # # % % % % # O o o   .         o.O.#.",
"$.w   O .       o o . - - ; ; ; Z D D D D Z Z Z = 4 4 1 1 $ # # # # % # @ @ X . .   .         #.o.O.",
"@.w             X X o o = - - ; ; 5 D Z 5 5 5 5 5 = o 1 1 @ @ @ @ @ 1 @ o o X X               o.O.#.",
"@.8             . . o X X = = - = = 5 5 4 = = < 5 = o = < o o @ @ @ @ o o X X .               #.O.O.",
"#.8 O         . . . X X X = = = o @ < = = < = = 5 = o o = o . @ o o o o o X o o               #.#.O.",
"o.w w         . . . . . . X o = X o o < o o o < < @ o o o @ o o o o . . X . X .               #.O.o.",
"#.k #.        O .       . X o o o X X o o o @ < o o o .   X . . . . . . . . . o               o.O.#.",
"o.w @.    O         .   . . o . o o o @ @ < @ o @ . . . . O . . . . . . . .             O     $.O.O.",
"#.k @.    O             . . o . X X o o o X o o . . . X . . . . . . . . . .                   #.#.o.",
"o.w o.                . . . . . . . . . o X X . . . . . + X .     . . . .                     #.O.O.",
"o.w #.                    .   . X . .   . . .   . . . . . . .     . . .             O         #.#.O.",
"o.k @.                    .     .   . .   .       .   .           .                           $.O.o.",
"o.w @.                          . .     .   .                                                 o.#.o.",
"o.w @.                        . O                                                             #.#.o.",
"o.w @.                                                      O O                               #.o.#.",
"#.o.w       O             O O               O             O O             O                   #.#.#.",
"#.w 8       O             O O       O   O O O             O                             O     I #.#."
};
