/* XPM */
static char *_687507468797[] = {
/* columns rows colors chars-per-pixel */
"50 50 256 2 ",
"   c #000605",
".  c #010A06",
"X  c #02060A",
"o  c #020B0A",
"O  c #0B0D0D",
"+  c #0B0707",
"@  c #120B0C",
"#  c #170C08",
"$  c #011305",
"%  c #0B1404",
"&  c #021B05",
"*  c #02140C",
"=  c #0A120D",
"-  c #011B0B",
";  c #0B1B0B",
":  c #13140B",
">  c #1C130E",
",  c #1A1B0E",
"<  c #161706",
"1  c #000D13",
"2  c #0D0D12",
"3  c #020C1A",
"4  c #060610",
"5  c #170C13",
"6  c #021414",
"7  c #0B1313",
"8  c #011A14",
"9  c #0B1B14",
"0  c #02121A",
"q  c #011C1A",
"w  c #0B1C1B",
"e  c #0D151B",
"r  c #131412",
"t  c #1C1412",
"y  c #131B14",
"u  c #1C1C13",
"i  c #121C1A",
"p  c #191C1B",
"a  c #131418",
"s  c #271809",
"d  c #231413",
"f  c #2B1515",
"g  c #231A14",
"h  c #2C1B16",
"j  c #2C1D1C",
"k  c #271B1A",
"l  c #3D1413",
"z  c #3C1B14",
"x  c #341917",
"c  c #2C1109",
"v  c #012406",
"b  c #002C05",
"n  c #01230B",
"m  c #09240D",
"M  c #012B0C",
"N  c #0B2A07",
"B  c #18280C",
"V  c #00320B",
"C  c #013A0D",
"Z  c #073507",
"A  c #143B0A",
"S  c #012312",
"D  c #032B12",
"F  c #01221D",
"G  c #012B1C",
"H  c #0C2917",
"J  c #132214",
"K  c #15221A",
"L  c #1D241B",
"P  c #172A16",
"I  c #033313",
"U  c #003F12",
"Y  c #0B371A",
"T  c #1B3718",
"R  c #232E0B",
"E  c #252406",
"W  c #272717",
"Q  c #332316",
"!  c #333818",
"~  c #29350F",
"^  c #010B24",
"/  c #041C23",
"(  c #061626",
")  c #121D22",
"_  c #1E1D21",
"`  c #161421",
"'  c #0D142E",
"]  c #281B23",
"[  c #3C1B23",
"{  c #012524",
"}  c #0B2323",
"|  c #012A25",
" . c #0A2A25",
".. c #02252B",
"X. c #022B2A",
"o. c #0B2A2D",
"O. c #0D262B",
"+. c #122323",
"@. c #172729",
"#. c #05322B",
"$. c #073727",
"%. c #153628",
"&. c #032B31",
"*. c #0A2C34",
"=. c #052731",
"-. c #172634",
";. c #053535",
":. c #153A33",
">. c #262525",
",. c #3A2924",
"<. c #273925",
"1. c #35352A",
"2. c #272737",
"3. c #253D36",
"4. c #3A3B39",
"5. c #560B17",
"6. c #501815",
"7. c #671819",
"8. c #6D1811",
"9. c #462517",
"0. c #4E2F19",
"q. c #742C0D",
"w. c #672A1C",
"e. c #792C15",
"r. c #713317",
"t. c #431D29",
"y. c #4D2F27",
"u. c #673824",
"i. c #7A372C",
"p. c #02430D",
"a. c #044909",
"s. c #005A08",
"d. c #024413",
"f. c #014A12",
"g. c #07481B",
"h. c #194A1A",
"j. c #045717",
"k. c #17571C",
"l. c #14440A",
"z. c #234718",
"x. c #285410",
"c. c #04780B",
"v. c #066A16",
"b. c #097617",
"n. c #176B18",
"m. c #317013",
"M. c #084727",
"N. c #174727",
"B. c #075627",
"V. c #094636",
"C. c #154733",
"Z. c #175836",
"A. c #0D5834",
"S. c #254924",
"D. c #364928",
"F. c #235626",
"G. c #264B33",
"H. c #3C4932",
"J. c #245636",
"K. c #335631",
"L. c #0A6628",
"P. c #146728",
"I. c #057A26",
"U. c #0F6E30",
"Y. c #176834",
"T. c #147535",
"R. c #14762D",
"E. c #26782A",
"W. c #366735",
"Q. c #267636",
"!. c #2E6B2D",
"~. c #5B4A18",
"^. c #6C490D",
"/. c #4F7412",
"(. c #677315",
"). c #485432",
"_. c #6E4C2B",
"`. c #5B772D",
"'. c #656C2F",
"]. c #163545",
"[. c #11324B",
"{. c #282744",
"}. c #2D2B4A",
"|. c #34287C",
" X c #251C57",
".X c #492D4A",
"XX c #491B71",
"oX c #5E276B",
"OX c #165248",
"+X c #2F554A",
"@X c #0B7952",
"#X c #11734B",
"$X c #2A6C4F",
"%X c #1B7163",
"&X c #1D6467",
"*X c #216869",
"=X c #395A7B",
"-X c #4C564F",
";X c #607860",
":X c #5C6362",
">X c #94160B",
",X c #8C1712",
"<X c #A8180E",
"1X c #AF1714",
"2X c #9A2515",
"3X c #883413",
"4X c #A72916",
"5X c #891A2E",
"6X c #82421C",
"7X c #917C2F",
"8X c #896B1E",
"9X c #851543",
"0X c #008503",
"qX c #028A0A",
"wX c #029805",
"eX c #048716",
"rX c #049618",
"tX c #178C13",
"yX c #2C9018",
"uX c #05AA15",
"iX c #128929",
"pX c #169B2A",
"aX c #0C8C30",
"sX c #2C8D2D",
"dX c #17A626",
"fX c #0BB12C",
"gX c #6E910C",
"hX c #74AE13",
"jX c #7F8A3E",
"kX c #4EAE31",
"lX c #599220",
"zX c #00CC32",
"xX c #6FD32D",
"cX c #138F53",
"vX c #26934B",
"bX c #0BB04D",
"nX c #32B552",
"mX c #119471",
"MX c #319671",
"NX c #2FAE75",
"BX c #12B77F",
"VX c #4EBC55",
"CX c #428365",
"ZX c #609C52",
"AX c #0EC166",
"SX c #88A60E",
"DX c #8B9934",
"FX c #8AD112",
"GX c #8CCB2D",
"HX c #839C40",
"JX c #ADA864",
"KX c #A4CA43",
"LX c #1A1593",
"PX c #1F259E",
"IX c #157581",
"UX c #23AD89",
/* pixels */
"q q q { F F F { { | { ..| ..X.X.G o.&.&.#.| G $.| $.G #.{ ..;.S | |  .{  .{ { q } { F q q q q 8 3 6 ",
"q q q F F F F F { | | | X.X.| X.| #.&.| X.| | #.;.F G | ;.&.$.H X.| .. .{ { { { F q } q / q 8 8 0 6 ",
"q q q q F F F F { { { { | | { X.| &.X.| ..X...&.&.| $.| #.| .. .| O. .O.} { / } q } } q q q 8 8 6 6 ",
"q q q F F q { F { { | { | | ..X...#.X.{ o.*.=...| OXC.#.| | O.*.O. .| } } } } F } w F q w q 8 8 6 6 ",
"q q / q q F { q { { { { | { | | ..#.G { o.*.| | | $XV.C.G  .o.*.o. .+.} ) } } } w F q w w q q 6 6 6 ",
"q q q q q F F F / { { { { { { { &.| G G &.&.| g.B.A.G C.%.H K O.+.+.+. .} } w ) w w w w q 8 6 8 6 6 ",
"8 q q q q F F F { { ..{ { { { | | { F o.;.#.B.E.E.f.$.$.:.%.F } O.+.+.+.+.+.+.i w w } w w 6 6 6 6 * ",
"q 8 q q q q F q / { { { { { { { ..F G *.[.V.P.kXsXf.$X#.:.:.K @.+.+.+.+.+.i ) K K q w w 9 q 9 6 6 6 ",
"0 q q q q q F F q { / { ....../ G H #.#.%.! rXfXdXn.B.A.Y.P.$ -.@.@.@.@.+.) ) ) K i i e w w 9 7 7 6 ",
"6 8 8 q q q q F q F q q q F { { } ;.&.+Xz I.zXtXpXiXk.W.d.S.C.-.K K K K y L y J K i ) w i e 6 7 6 7 ",
"0 8 q q q q q F F S G { F G | #.*.;.*.t.l.zXpXP.eXiXx.l.J.@.Z. .@.>._ p ] p _ _ y 9 w 9 w 0 8 7 9 6 ",
"0 0 q q q q q q S q F F F { |  .F OXO.Q uXuXlXY.m.(.(.~.1.3.W ! W W L L L , L u K p i i 9 w 8 7 6 7 ",
"6 8 q q q q q q / q q { / { | X.g.%.+XI.zXyXx.$XZXgXGXGXm.n.S.G.F.F.k.F.N.h.N.h.>.W +.g i a 7 7 7 7 ",
"6 0 q 8 8 0 q F } / q { { { $.$.F.J.Y.bXtXa.U O.-XgXSXFXxXm.N.` Q j j Q j j f f i a y a y a a 7 7 1 ",
"6 0 6 8 8 q q / q q F S D D M.K.:XMXNXNX).G.G >.) ).gXhXGXDXK.1.j j ] ] >.] d k K i y 9 9 9 7 7 7 7 ",
"6 6 6 6 0 q q { | | $.M.M.M.$XCX-XNXUXH.2.o.} L { W '.^.8X(.8X_.q.q.q.e.q.q.8.8.+XG.G.%.L w 9 7 7 1 ",
"( 0 1 e 6 & Y Z.I.I.T.I.v.yXsXL.mXUXMXT.v.b.P.Z.-.j g K 2.4.).q.6X_.r.~.u.u.9.s k g t t t : 7 2 = 7 ",
"A H >.H././././././.`.`.`.`.).-XK.F.$XC.S P p ` p P W [ t.1.! ,X<X2Xr.w.6.9.x >.W k u a a a r 7 = = ",
"$ $ 6 w w w q q ; } 6 & P -.-.y.HXJX-X-X;XA.%.+.J y u f L P 9.y.1X4Xe.u.Q z [ [ d t t t t r r 2 O = ",
"' ( ( 3 3 3 6 - ^ =.( O.:.-.<.`.JXjXH C.A.U Y.d.N.<.] 6.Q y.i._.4X2Xe.u.0.y.x f L u u y 7 9 9 9 O O ",
"$ 6 ^ 3 & N ; ( } - F [.[.F ).jXZXl.H K K 1.<.W S.;. X5X2X3X1X1X<X<X>X,Xw.y.W B g f d > > > @ @ O 2 ",
"$ $ 6 6 6 0 ^ ^ ( H :.[.*.m.SXKXSX(.8XDXHX`.z.1.h. X|.9X4X3X<X>X,X>X>X,X,X7.0.9.Q x h s , > r : O + ",
"^ 3 $ - 6 6 w +.3 -.+XF.n.gXhXgXSXgXhXGXhXlXm.B.F.XXPXoX6X~.r.0.0.7.8.8.7.6.7.7.7.7.5.5.5.5.5.5.1.>.",
"7 3 ^ ( O.@.-.' %XIXUXvXnXnXnXVXVXVXVXkXxXZXl.}.K.XXPXoX5X! Q z z z l x Q W c c s , s < < < < % @ + ",
"O 6 8 { *.-.{.{.}.}.2.2.{.-.{.{.}.}.=X=XnXbXV.M.x.XXLXPXy.! c 6.z z l l l l l c c d 5 a a 7 7 O 4 @ ",
"2 o 6 q / / ` ` e ( ^ ( ( ( O.} ) I OXZ.iXpXz.W 1.XXLX|.y.1.k >.Q x x h f g f g d c d > 5 @ # + + X ",
"1 1 o 6 6 6 3 1 6 q 8 S S - D S O.| V.OXsXcXN.H y..X}..Xy.~ , E h h f x f f f g e 9 < % < % % + . . ",
"* o o 6 6 6 8 8 - 8 - n n - D D C j.aXaXpXfXP.d.T R T D.T T T z.R ~ ~ R R R R B ) p > c c # # + . $ ",
"* 6 1 o o * * - q F S H %.Y C.J.cXmXAXvX#XT.V. .cXaXpXcX@X*X%X%X*X*X*X*X*X&X&X&X+X+X+XH.D.<.%.%.J J ",
"o o o o o * $ 8 6 8 * q n D N.N.C L.rX0Xa.f.l.T K.qXn.m.M.>.k L u u g g t d 5 t ' w : < # # %   . $ ",
"o o o 6 * 6 8 q q H S S S I N.N.P F.rXtXN.M.g.$.!.0XtXE.g.~ R B u , , > > > t : = 6 * * * ; $ $ + . ",
"o o * 6 o 1 6 1 - S 8 D M M g.g.d.k.wXwXk.g.a.H $XeXE.$XM.W R J , u > d > > > # d d 5 5 @ O # + + + ",
"o o o 6 6 * 8 - ; S q m I V N.B.Z x.pXqXs.j.j.U Q.tXtXsXl.Z B W , , , t t a 5 5 O 2 : 2 O O o O o X ",
"1 o o o * * * 8 - S S 8 I M %.B.p.n.rXeXs.p.h.T T.eXeXsXB.B.M.$.B B < % % : t p 7 @ O O O O O o . X ",
"o 1 1 o o 6 - 6 9 G G S C Z h.B.U P.pXrXv.f.j.p.U.b.eXvX#X$X$X$X).H.S.W , % $ + @ O r O O o + . X o ",
"o o o o * * 6 - $ S q n V b z.Z.g.v.eXqXv.n.B.f.Q.eXtXT.$.I I S v % $ $ % = = : = O O O O o + o . X ",
"o o o 1 o 6 * 8 9 G  .Y g.l.W.Q.vXvXdXrXc.v.s.a.iX0X0XE.P D N L J , y 7 : 2 2 4 O O O O + o o . o   ",
"X X o o o * * * $ n 8 n Z b k.B.g.v.rXwXc.c.b.b.pXwXwXE.Y D b % = = O O O 2 2 2 o + O o . . . .   X ",
"X 4 o o o o 6 8 9 D S n C Z h.j.g.n.dXfXdXdXuXuXdXwXwXR.Y I N ; 9 * = * o = O 7 O O o o o o . .     ",
"o X o 1 * 6 * * % n S m d.p.F.U.j.c.wXuXwXwXuXwXtXc.c.E.P H m ; & & - $ * * . . O . + o   . .     X ",
"M B ~ D.D.G.OXOX#X#X@X@X@XcXcXcXY.U.U.T.R.U.U.U.T.Y.A.N.Y M n & * ; = o = . o . o o o   o           ",
".   % % $ - q / 1 1 - 8 n M M M d.d.f.f.f.f.p.p.U C C I M & & ; ; * $ % $ . * * o o o o   o   X   X ",
"      X     o 6 7 9 9 m m D M D V I C p.p.p.C C V M M M D ; 9 ; * * $ * o o o o o o o   X . .       ",
"  X 4 X 1 o = = $ - - v v n b b I V C C C C C V I D M m m - - - * $ = o $ o o . . o   o . X         ",
"      o o . . . * * - - m m n M M M M V b V V M M n n n - - - $ o * . o . o o o X o o .             ",
"    . $ $ $ $ $ . $ = - & - v m D M V V V V V M n M n n n n - * $ o * . . o o o o o   X   o         ",
"          . o o * & - - n n n D n n n M b b b n n n n & $ $ $ . o $ . . o X o X . o .               ",
"4 X +     o 4 1 $ * * $ - - - - m n n v v v n n v n - - * - * o o o o . o X o o o   o X             ",
"X X       X o o . $ $ * $ - - - - n n - n n - n - - - * $ * $ . . . . . .   . . .                   ",
"X       X   o   . . o $ $ $ - - n - n - - n n - - - & $ * $ $ . o . . .     . .   .                 "
};
