/* XPM */
static char *_687792993070[] = {
/* columns rows colors chars-per-pixel */
"50 50 68 1 ",
"  c #0C171D",
". c #10171D",
"X c #11181E",
"o c #141C23",
"O c #181F26",
"+ c #151F28",
"@ c #172127",
"# c #1A2127",
"$ c #15212A",
"% c #1C252C",
"& c #1E282F",
"* c #1C2730",
"= c #1E2A32",
"- c #21262E",
"; c #22292F",
": c #222731",
"> c #232C33",
", c #292E34",
"< c #242F38",
"1 c #282F39",
"2 c #263036",
"3 c #2B3136",
"4 c #25323B",
"5 c #2B353B",
"6 c #2E383E",
"7 c #303437",
"8 c #31363C",
"9 c #33393E",
"0 c #393C3C",
"q c #3D403F",
"w c #2D3640",
"e c #273841",
"r c #2D3A43",
"t c #303741",
"y c #343C43",
"u c #393E43",
"i c #333F48",
"p c #354046",
"a c #3C4146",
"s c #35424B",
"d c #3C444A",
"f c #3E494F",
"g c #344650",
"h c #3C4750",
"j c #374950",
"k c #3C4951",
"l c #424545",
"z c #454847",
"x c #41464B",
"c c #44494D",
"v c #4A4D4D",
"b c #4D504F",
"n c #444750",
"m c #454C52",
"M c #494E53",
"N c #445157",
"B c #4D5154",
"V c #4E5459",
"C c #525555",
"Z c #555857",
"A c #52565A",
"S c #55595C",
"D c #595D5C",
"F c #5C605F",
"G c #555B61",
"H c #5A5E61",
"J c #5D6162",
"K c #616565",
/* pixels */
">4<*+$**4$444=*eeeee4eep4=espe4*@&&=$4eee4eggse<gg",
"><<>:><44*44e=$44p4p=pege<4re44<5965=pgpgeegggr<ss",
"+$$$%><14=24e4=e<444$$$$=$4e4<446r46$qepg4egjs<+$$",
"**:*:464<*=4ep4ppgpp*=$$$+=41<4=6yrw4gjjsrrgjge%=>",
"11<<<14<2&26ypra4p4q4q4ewwiigiiwee6e=6ppr44e6e629p",
">>>****%o @@$%o@$$&2=eeqw>ww1<<:44=<o&&%%*<pp64255",
"<e41>><<2&5555>444444qqeiighiriryiyp>42;=>pNjjp6ss",
"<4w4<1w5>>96661wqpqe=44qewgkiriigshkyaq9r6rjspppfj",
":<144=>4:1iyriw:%->##%::::,-:,-:66566656eosnyseyjf",
"45wyr66rt4ywyi1O##-#$%%%OO::,,::66625sjdi%skikihjs",
"55wtyyppiwiitsw:,<<>,tttw1yysnuusfs66jffu=sdakpadf",
"&&=:&@%&:=yrew1w14,<5dfft>w5tiwtfNfpqps6y$%%%1&:,3",
"665>%#@@:=ysiityuy646iddmiinmmsaNfNcNkmkn,#Xo+:21,",
"yuu858tti1ihhhytiat46akddiunmh6rfffNNmkmmi42688taa",
"%-%;3yaai>wissw1596><ydhn5tuuu1155556yasui9ydu86t9",
"#o.O3aayy1ihhhidsfp54innn51,,7:,46624fNmmmuududxdd",
",22;26t9->6dduyaccd98pxxxyayyytdhnai,dMVatcxddiccc",
"763223>;8,>3433t595=#-;;->andf8inhay-586y455698dNb",
"66yppdai,#X.Xo#;;33%Xooo%,xmmdyaVVMm5uytt4uddd8tNc",
"addaaddua833889i9ap8349639mBmcydmVMVdMBmxamSGM83VV",
"37537tt893<59969aay8txndttnNBNuudhdNiMVMAdxdnd36NM",
";2,,7uxxat99ayyaaai8ucmmMhNMMmaaVVMVnVVGVdatyy38vm",
"aa99tyuta99yuttdNNmddmVBVmVMNmsxGGVGmVVVVdddai35MM",
"888370y8659yu99idnat58t98tMGANuuduinyhhnMsxday,678",
"8tt55ydudunmmcacMMMndnMnM9MAGAMumnMGyxuunyxMccu723",
"axa99ddddammmnpcnnnnnMMVx7MAACMdAMGHnGVAMcMASSAMcz",
"tuy9tdcddiknfaridduuuuunxyASSMMxGAASuAMGMMccMMxczz",
"ddduacmnxdmMBmanMMVMMGGGMuAASAAcGMAAnGHHCAvuxd9uGD",
"iuy9ryuyi8acmnaxmMnncMMMCuMMMMMuAMCVaSSAMMxuxa90VV",
"85699iaddtdddatuxuuuxMMMVaMnMAAuMxcc7ccxMMxuxx9,mm",
"OO#%:3586;,2<>O#--:,tnMMMxGMAAAxxaccyAGHSVCMABx7tu",
"auadddcca9adncdcduutdnMMMaGASSScSASC0MMASMASADM7yy",
",3837898y0uy0uyluyy0yxMxzxHDbSHnCBCv0BCDHABbBbdqql",
"90auuuxxxuxcxxunBVAx,-,,87AKGKAqACCM0CBDAZBBZBfqll",
"9alalcMMMucMMx0nMBSB00xcl7cAAHSCDSSClACDSZDFJJFFDD",
"9axauuxMvuxvxu7lABBBcvMxc0MHHDMnvnvz0vvMVbvBACCZZZ",
"axxluxxcxucduu80838tdBZNAu007uubDDHDvHDHDCzcNccvzz",
"lzxlacMMuuMxxxuuSASAvBVBAMSDSMlnDSDCzDADKCcvFFFFZZ",
"t099uxvcxuccccucu0daylNBAvMnMMlzSAACvHDHDbcbZZCZZZ",
"8738ycMcc0lMMluMSVVBBSFASAZSKJnnllzxuDDDJZbBBzlzZZ",
"unxudxmMcuxxxxaMNbbZfCZFDBDKHKCCCZZbqFFFDDDZDZblFF",
"udutuuuncuxuuu9xcNNBabCCBzASCABCbCZbqZbCCCCZCCvqZD",
"uxuyuxxnMxnvnx0x3779,7q709zzllzvFZFFfCvbzzvvbbzlqq",
"uxuunMnMxuvMMvyuafmVabvvlqMCBBMCFFFFvCvvvCCDDFDZDZ",
"tu88xnxxMxvMMMxMpzcVlBBbvlADDKCMFFFFbFZFvbCFFDZZZZ",
"uut8xnnMd77,809xpzcAcCCCvlBSHDvlqqqqqCvCcvbCCbzaZZ",
"uxuuxcnmBxxxcvxC9pzBdBCBSzCSDDCzbbZZzFFFFbZFFZzqFD",
"yu87tuulxyuxMMaxpcmScZASAlvvbZvzbCCbqFFCFCZFFCqqDD",
"uuu7,,,,87lMnnnccMnc9zzdzlzqzzqzbvbbqbzzbzbZbZzzzq",
"axau888080xMvvMnMBMBdbBvbbCvCCzCZZZFqDZZDbFFZZZCbb"
};
