/* XPM */
static char *_689336375543[] = {
/* columns rows colors chars-per-pixel */
"50 50 196 2 ",
"   c #651B02",
".  c #6A1E06",
"X  c #6D1F09",
"o  c #771F07",
"O  c #632203",
"+  c #6C2206",
"@  c #632409",
"#  c #6D240C",
"$  c #64290A",
"%  c #6C2A0C",
"&  c #732300",
"*  c #792604",
"=  c #742906",
"-  c #73250B",
";  c #7D260C",
":  c #732A0C",
">  c #7B2B0C",
",  c #71310E",
"<  c #7C320F",
"1  c #602713",
"2  c #692510",
"3  c #672916",
"4  c #6D2C14",
"5  c #742512",
"6  c #782610",
"7  c #742C13",
"8  c #7B2D14",
"9  c #762D1B",
"0  c #7B2F1A",
"q  c #6A3211",
"w  c #6D3119",
"e  c #743215",
"r  c #7D3215",
"t  c #74331B",
"y  c #7C341B",
"u  c #773819",
"i  c #7B391C",
"p  c #7E3521",
"a  c #7C3C22",
"s  c #78382C",
"d  c #793F34",
"f  c #794828",
"g  c #80240D",
"h  c #822C0D",
"j  c #8A2D0C",
"k  c #86300F",
"l  c #862713",
"z  c #832C13",
"x  c #892D13",
"c  c #862F1A",
"v  c #8A2F1A",
"b  c #843215",
"n  c #8A3216",
"m  c #873817",
"M  c #83341C",
"N  c #8B351B",
"B  c #843B1C",
"V  c #8B3A1D",
"C  c #903516",
"Z  c #923916",
"A  c #91351C",
"S  c #923A1E",
"D  c #9C3C1D",
"F  c #A2391C",
"G  c #AB3F1D",
"H  c #843622",
"J  c #8A3721",
"K  c #833B22",
"L  c #8C3C23",
"P  c #833D2B",
"I  c #893D2A",
"U  c #923521",
"Y  c #933C23",
"T  c #9B3D23",
"R  c #913F29",
"E  c #803D35",
"W  c #A13E24",
"Q  c #AA3E21",
"!  c #AC3F2A",
"~  c #97431F",
"^  c #A3421D",
"/  c #AC421C",
"(  c #854223",
")  c #8D4223",
"_  c #874B27",
"`  c #85442A",
"'  c #8C432A",
"]  c #8C4A2D",
"[  c #944225",
"{  c #9C4225",
"}  c #984826",
"|  c #94442B",
" . c #9A442C",
".. c #944A2D",
"X. c #9C4A2E",
"o. c #8B4B30",
"O. c #884439",
"+. c #86483B",
"@. c #954731",
"#. c #9E4731",
"$. c #964A32",
"%. c #9C4C33",
"&. c #955033",
"*. c #9D5134",
"=. c #9C533B",
"-. c #A44324",
";. c #AB4325",
":. c #A24927",
">. c #AD4927",
",. c #A4452C",
"<. c #AC452B",
"1. c #A34B2D",
"2. c #AB4B2C",
"3. c #B14425",
"4. c #B24A25",
"5. c #B2442A",
"6. c #BB432A",
"7. c #B34B2C",
"8. c #B94E2D",
"9. c #A6502D",
"0. c #AB522F",
"q. c #B4522F",
"w. c #B8512E",
"e. c #BE592F",
"r. c #A34733",
"t. c #AA4632",
"y. c #A34C32",
"u. c #AC4D33",
"i. c #A44E39",
"p. c #AC4E39",
"a. c #B54633",
"s. c #B34D33",
"d. c #BB4C35",
"f. c #B44D39",
"g. c #BB4E3A",
"h. c #A45235",
"j. c #AC5235",
"k. c #A45937",
"l. c #A4533B",
"z. c #AD543B",
"x. c #A7593A",
"c. c #AC5B3D",
"v. c #B35335",
"b. c #BA5335",
"n. c #B35937",
"m. c #BC5A37",
"M. c #B3543B",
"N. c #B9543C",
"B. c #B45A3D",
"V. c #BA5A3D",
"C. c #BA613F",
"Z. c #C04B37",
"A. c #C0553D",
"S. c #C25E3B",
"D. c #C3633B",
"F. c #A55641",
"G. c #AC5641",
"H. c #A35A42",
"J. c #AC5B43",
"K. c #A3504A",
"L. c #AF594A",
"P. c #B45641",
"I. c #BB5441",
"U. c #B45C43",
"Y. c #BB5B43",
"T. c #B55E49",
"R. c #BA5D4A",
"E. c #AD6143",
"W. c #AF6349",
"Q. c #B56245",
"!. c #BB6245",
"~. c #B5634B",
"^. c #BB644B",
"/. c #B46A4C",
"(. c #BC694D",
"). c #A56252",
"_. c #B36355",
"`. c #BB6551",
"'. c #B66A50",
"]. c #BC6A52",
"[. c #B97256",
"{. c #C35541",
"}. c #C35C46",
"|. c #C45D4A",
" X c #C26346",
".X c #C86047",
"XX c #C2644B",
"oX c #CA664C",
"OX c #C16A4D",
"+X c #CD6C49",
"@X c #C26652",
"#X c #C36B54",
"$X c #CB6B55",
"%X c #C06959",
"&X c #C27156",
"*X c #C3735B",
/* pixels */
"N N N b n n + $ 0 M V M M y B y H l $.d 3 z h s i - y r b : e 9 # H H c M c B 0 y y x M 5 5 H 8 M M ",
"f.j.B.z.M.u.H a E.~.(.(.~.~.Q.U.#.,.J.+.a j.V.).~.E.(.j.x.x.l.B J J.`.'.]./.'.~.T.U.B.j.L y i.z.z.z.",
"M.M.B.N.Y.v.M t U.^.(.^.!.U.B.N.y.7.B.s B D.+X_.U.U.!.j.z.B.l.6 M J.%X$X@XU.R.Q.!.N.b.j.N b j.Q.P.M.",
"f.p.v.j.N.p.M r !.!.!.Y.M.N.v.f.t.4.n.P r e.S.l.n.u.b.s.v.M.z.l Y T.@X@XY.f.M.M.N.3.G >.S M y.B.N.v.",
"N.M.N.v.N.M.V y ^.XX!.M.p.s.M.g.j.4.V.I r 4.8.i.N.u.v.7.2.2.U.c R R.^.Y.Y.v.m.v.7.Q G >.S n y.M.N.b.",
"f.v.B.m.V.s.M r M.P.M.u.2.t.s.N.M.2.M.E 8 / d.L.p.j.v.,.T y.^.8 L G.P.M.v.2.2.-.-.G / >.n n h.V.b.b.",
"u.u.j.0.v.2.b u z.z.P.P.P.P.U.U.T.j.U.O.p 7.N._.P.P.U.B.l.c.*Xp | U.P.N.v.7.2.;.-.^ ;.>.N H l.B.v.v.",
"T D T Z D S > e U  .y.i.l.z.G.z.F.u.J.E 9 <.d.K.J.y.y.U.l...H.4 z y.y.,.W D -.^ :.^ ^ ^ V c R N T T ",
"@ y 7 : 0 # % q 7 : 8 B 3 1 p 7 9 p a t 4 4 7 0 i w 7 a t % $ % - ; & = u t - > h 8 8 7 : : > * 6 8 ",
"0 $.@. .y. ...$.%.R Y ) 5 2 P  .$.$.$..... ... .B : M @.%.$.%.$.%.X.~ X.&.i 0 } u.y.L B ' *.j.0.y.i.",
"J G.I.f.Y.Y.Q.Q.U.M.M.B.J 5  .I.#X(.(.Q.^.OX XS. .M #.].#X#X$X^.^.M.2.j.F.H J !.B.i.| [ ..h.n.B.z.z.",
"n M.N.f.N.b.n.j.P.v.V.!.Y - t..X(.(.^./.OXoX}.Y. .c y.].!.Y.!.z.Y.u.2.M.l.M V R.1.j.j.h.1.1.2.v.B.m.",
"b z.z.t.2.u.2.1.P.v.0.c.B +  .oX/./.~./.^.R.Y.Y.L 8 X.(.J.z.B.1.p.a.7.B.G.M z t.2.j.C.Y.z.u.1.1.M.N.",
"B x.z.u.B.j.c.x.U.j.n.Q.( : @.!.`.`.`.`.~.Y.R.|.[ B h.^.B.j.B.z.P.N.s.v.i.K M h.n.v.j.B.P.M.u.1.z.z.",
"y h.h.z.Y.U.B.B.I.I.!./.o.7 @.z.P.N.M.N.M.p.s.b.V m  .c.n.t.2.s.Y.I.v.j.%.p B B.!.B.z.U.R.T.U.B.(.].",
"8 | 1.p.Y.M.z.z.I.g.V.U.p # | P.d.7.7.u.7.4.4.7.S n D u.B.v.d.m.P.V.V.(.J.y : h.!.U.z.P.P.G.G.Q.U.J.",
"2 w y y J J f f I P a y 4 7 y H ( n V _ i Y v B 3 3 4 w a o.` a ' ' ` ] o.t 2 K ` L [ ) P ` _ B K p ",
"8 r 8 ; g o   $ 6 7 r 0 6 0 n V B n n , O z l 7 t e 4 4 7 i 7 # . 9 r t i 7 # r 0 8 > :   @ 7 > r r ",
"p.l.u.<.<.W N i U.U.U.Q.(.^.!.XXh.M.,.m 8 z.P.k.~.L.G.l.h.h.%.M J G.~.J.W.~.J.L.J.M.v.r.L H %.Q.U.U.",
"M.V.M.N.d.2.S B `.`.].#X].^. XY.Y.{.s.V B OX$X].^.XX^. XY.U.z.n V ~.].~.(.^.Q.U.Y.M.b.s.N c 1.!.@X`.",
"v.B.0.2.<.W b e _.`._.]._.`.`.%XY.d.! m b f.P.c.v.M.f.g.u.v.z.z Y !.$XXXXXY.v.B.I.s.8.7.A v r.XX^.^.",
"N.v.2.;.;.,.V i R.`._._.W.Q.^.`.Y.d.<.S z u.a.h.v.M.a.f.,.t.U.b Y P.!.Y.V.s.2.q.<.G 3.;.A c 1.Y.c.c.",
"<.W D F ! W N y XX!. XY.V.V.n.M.j.s.<.S b s.g.B.t.v.2.u.{ y.E., Y B.Y.v.b.s.>.2.<.Q 3.;.A N y.Y.V.B.",
"! 4.3.7.Z.a.Y M S.V.v.v.b.b.w.8.0.7.<.m h d.{.U.j.Y.I.XXP.U.[.u Y U. Xb.7.b.>.>.<.7.8.2.A M %.n.s.7.",
"Y | J Y Y M 7 i i. .D :.} L  .T Y  .) 7 : P *.l.=.=.H.l.$.=...u n R %.Y  .X.J %.! T T T A l N { S S ",
"- b z l n 6 - e n x j S z - n k n z 0 0 e M V N P 9 0 H 0 0 r % - 0 n l x 8 X M r 0 r b r : 6 u e e ",
"+ )  .R  .X.) ..| Y D ~ b - V { } V M L $. .{ ,.K X 6  . .L ..$.| R } Y S h - R ) | ..| | ) ) ) V B ",
"M c.`.!.^.(././.(.Q.v.9.V M =.Q.z.%.X.h.G.Y.}.|...8 J R.`.~.(.#X(.^.^.Y.h.N n J.I.Y.Y.N.V.Y.I.j.M.z.",
"0 J.%X^.OX#X(.(.%X!.v.1.m M h.^.z.z.h.y.1.u.N.|.@.0 R `.#X`.`.].].(.OX!.y.z z J.V.V.N.s.j.N.I.N.Y.Y.",
"7 G.%X^.^.^.^./.`.Y.b.1.m r | h.u.z.B.j.:.{ t.M.$.6 N J.^.!.^.^.^.Q.^.Q.1.x > U.=.k.h.$.9.x.c.x.c.c.",
"r J.%X!.^.!.Q.Q.R.I.b.2.N 8  .1.P.N.Y.V.j.1.h.U.*.0 n U.XXQ.!.OX~.U.Q.V.j.A x c.k.k.k.x.x.x.C.c.x.E.",
"7 =.R.U.U.B.k.C.p.s.7.-.n 8 X.Y.I.u.s.V.B.h.z.].=.: M Q.].z.h.U.U.z.j.j.2.n ; y.j.j.b.V.N.N.v.N.N.Y.",
"c r.!.f.M.V.f.p.d.a.d.p.T x  .].U.~.~.U.z.`.~.*Xy.N D M.N.v.v.b.v.b.7.b.1.b b [ h.Y.M.I.Q.U.!.!.R.R.",
"- V R n n S n V b r r r $   q ( K L I R H L 0 H 7   - V n n N N b n x x M @ + 6 y J v N K B K n a a ",
"r b V 8 b b : : i u u u e w t a 9 y K y 7 r # r t 3 t p 9 9 r # 2 H M H p w p M y H 8 8 7 % 0 8 e t ",
"9.%.y.1.*.X.r : h.c.U.z.z.P.G.z...%.$.' y =.l.F.H.H.F.l.$.$.$.t p =.G.F.H.=.F.l.l.z.i. .y e @.l.r.r.",
"B.M.m.P.!.c.J r ^.@X$XXXXXoX|.I.y.G.G.L M ~.$X`.~.XXY.Y.B.P.B.z ( Q.$X].(.~.XXY.C.V.m.v.V b j.!.I.I.",
"b.v.N.v.I.M.N n ~.'.(.Q.c.z.z.u.t.M.P.Y ; U.XXI.s.m.s.d.v.b.B.j m !.+XXX!.B.V.b.b.7.4.>.Z n 9.v.B.P.",
"j.n.n.j.M.j.N z U.Q.Q.x.h.j.j.1.t.v.z.{ ; u.M.<.2.v.2.2.2.u.U.n V B. XY.B.n.n.7.4.-.Q <.C n h.M.M.B.",
"0.B.!.n.B.z.J 8 V.Y.M.d.s.b.b.b.b.9.0.} > X.j.2.h.B.1.y. ...H.y Y U.Y.M.c.j.v.,.2.-.2.t.n 0 z.R.g.N.",
"d.A.g.g.N.p.U l M.M.c.z.p.P.I.P.g.|.I.U l t.|.I.l.G.J.T.z.T.`.V J Y.V.b.b.;.7.-.6.;.2.:.n V p.U.a.d.",
"T { { { { L r :  . .=.x.U.U.R.J.H.L.H.o.P &.E.c.Q.E.J.Q.l.l.F.z H l.r.2.2.-.:.{ ;.F { } B b [ | T { ",
"- r r : 0 8 % % - + 7 r 7 7 0 9 y 7 e q $ $ e 7 r - 6 y : # 0   # b ; > k * = r j ; > < = = > - r r ",
"< ( ) [ [ | ......' | ' w 2 y | r.@. .$.| Y [ T B 5 y @.....=...$.%.[ D ~ b r ] %.X.) ) ) } X.1...| ",
"V i.U.N.N.P.B.P.x.l.z.y.r % | T.|.R.R.!.Y.!.}.N.| 0  .~.Q.U.(.^.~.Y.N.p.,.n b k.l.i.y.| X.1.j.V.U.B.",
"N z.Y.I.N.d.d.N.J.M.|.B.K % @.$X].].[././.].#X!. .l r.`.`.@X`.`.#XOXXXN.u.S N U.M.U.z.u.j.j.j.m.N.N.",
"J z.Y.M.v.p.j.v.c.v.}.Y.( % R XX'.~././.E.Q.^.P.| - | (.'.'./.~.`.Q.Y.j.,.A l =.r.U.z.p.z.u.,.y.z.z.",
"K =.G.l.y.h.x.c.x.j.S.V.( $ ) |.OX!.^.^.!.Q.{.A...7 $.~.'.].~.E.'.Q.U.j.1.V 0 %.h.U.J.z.U.P.%.y.l.x.",
"M *.j.j.M.B.v.Y.B.n.P.%XL 7 r.|.|.I.m.b.b.N.b.b.[ b S V.D.b.m.v.g.v.7.6.<.b e U.N.d.M.B.n.j.v.v.Q.Q.",
"r X.z.z.Y.P.M.Y.!.V.R.%XH 5 R R.I.f.q.s.s.a.7.7.[ z S V.V.v.b.8.d.u.7.6.<.i e T.Y.Y.P.U.!.U.U.Y.^.^."
};
