/* XPM */
static char *_687567261659[] = {
/* columns rows colors chars-per-pixel */
"50 50 84 1 ",
"  c #363531",
". c #3D3D3C",
"X c #3E403F",
"o c #42423E",
"O c #48453E",
"+ c #3F4140",
"@ c #454544",
"# c #494743",
"$ c #474945",
"% c #4A4946",
"& c #474949",
"* c #4C4C4B",
"= c #514E4B",
"- c #4F504E",
"; c #52514D",
": c #4F5151",
"> c #545453",
", c #595653",
"< c #565855",
"1 c #5A5956",
"2 c #555658",
"3 c #5B5758",
"4 c #575A5A",
"5 c #5C5C5B",
"6 c #635C52",
"7 c #615F5C",
"8 c #5E615D",
"9 c #636055",
"0 c #62625E",
"q c #6A665D",
"w c #69695F",
"e c #5D5E60",
"r c #645E60",
"t c #5E6161",
"y c #646463",
"u c #696663",
"i c #666865",
"p c #6B6A65",
"a c #65676A",
"s c #6B6669",
"d c #676A69",
"f c #6C6C6B",
"g c #716C65",
"h c #716E6B",
"j c #6E706D",
"k c #737166",
"l c #74726D",
"z c #79746C",
"x c #7B786F",
"c c #726F70",
"v c #6F7170",
"b c #747473",
"n c #7A7673",
"m c #767875",
"M c #7B7975",
"N c #797778",
"B c #777979",
"V c #7C7B7A",
"C c #817C75",
"Z c #807778",
"A c #817D7A",
"S c #7E807E",
"D c #83817D",
"F c #89837C",
"G c #817F80",
"H c #7F8180",
"J c #848483",
"K c #8A8682",
"L c #868887",
"P c #8B8985",
"I c #878789",
"U c #8A8788",
"Y c #878988",
"T c #8C8C8A",
"R c #908B85",
"E c #908E8C",
"W c #92918D",
"Q c #949492",
"! c #989795",
"~ c #979996",
"^ c #9A9A96",
"/ c #999798",
"( c #9A9A99",
") c #A4A3A4",
/* pixels */
"#7 $;5dyfy<-+-BYTWKDkSDDd$>cBJIQWWEWTKDVfdo*80b8<@",
"MD,wbSYLLYYS4:fvbMxDxzwwj&:abGBNnnnzllznBj-iLJTJd>",
"nn*1fbBBlVVV8<jlSMzSlmlSb>5vNVNbzzzgglxCSl%yJfyyf>",
"zb,0bbbbVVSV8<i5,1,qww0w5@5NbvfNzxnCCFFFJB;yPb5yy*",
"jk1<pdyilVDV1O=#=,%$X-*$3X4NbaaBlMCDFRFDbl;5AVsli:",
"mbw,fpsfpAWPu1VP^^St-jxSs@2bbfafpfhpphp8yy<3MDNnf4",
"jk0*ihhs0lDM51DWSSmt:y88y&:4555345<&$%--%&*=yhipi:",
"idd=bVNs0plM06bzkl88:yjSr>5>&355ttt:*4jBMnnbhs53>X",
"djt&lVphiuhh1uVnfsae&rvb5&ecQ/)))~HV>8DPIUKKPJVb42",
"tja-jVMFMbNb0yMbvare&:&&:X4vEIIZVBvm*<llbhhlhhfy33",
"vft@jSllbphs55ffrtsc*@ecv45vINcsfvlV51llbhggzgpp35",
"jfy&jDSmy48y>-<8bcbf&@fEQv5fGcscfjfl1,ulllzkzllj25",
"VDMO$-<80850<-*>>:&&X&bIJf:fGcscplpf5*yfllzzzhhp55",
"MMM;0VW~(~(((QEQJJJVr:bbBv@aNcschllfi:ybjllzzzhf55",
"Dxk;bQ~LlMbbbNlbcbGIf:BHJS*rbcfbphhuy&4aifpphhffe5",
"DMM0MTLfMVNhlbhhvyabf:BJNB*abcfcznbii&5fffhlccBBe5",
"Nbf2nAZCAACZZccsfsvbb&fGBN:rbbbNVNbbf&4ebfsefyfr55",
"12>@sACFAACnzchcvvbbb&fbNN*efcbBZZNNa.::+&&&>@:>&$",
"054@sDACFAZnzczzNbbbb&sfbN:4fvNBNNbbc:fHITIcs:>bVN",
"nnf*fMnnACZnnzcbbbbvb&aafN:5abbNGGNcr@aGJTJvs:&GVV",
"nhi&ybNzMMMCMnbhbvvvb&reyb:efbBbZGGGf+5jacbcce&NBN",
"Czh%evlbMCVACVMMbvvNN&eryc:rfvNNNGGGv*dBcvvfa4Xrmb",
"AFn*efjlMMMMVVVVNvNVV@eaaf:efvbHUUJBf@ymJcvvif&ybV",
"ZZh&4fbbllgffhnbGvNGG@easf:rafbIJTTIN:dvJbBGfN:evB",
"kRb%1ppjffscNBGGNGGIc*:Bff#ffybJYTYHH&ffMDDVNB45ff",
"hAu#;88i5eesbbf4asfy4&:yff@ypibMHLTJS&ydlMMMbf*4yy",
"===*+***:>:@+&:*&*:**::X.*@yjbVBmMSVb-dplllly8@:>>",
"Chu1@tHHTTN52bJIETEIGJJf55<11fDJDVbpt@<<1,;<$;&4ee",
"WPPV*lQQQJv2aTJby3eyrbEQ5<055yi0w5,;,*<;,;*#.5fH//",
"qfSD*dBjBfa:rGf5vaffyemID>;@@$@@,,8pMSDDVzp,&vHTff",
"lulM$ySHmfb::fasssfbvyfPb&bJ((QQDJPWW^WWKDM1@abbbv",
"luuV&8vBGbN>>byavvfvbafJB*DPJbfVDDFDxMzllmz1@bBvbb",
"kjjj=plxMnl8$pkklblbzllCN>bNVGabbcNNZZnZhZcy:4BMVB",
"lbBj:qlxzMl8$ikkBmVVnzzMv*BbNbsbbnnnNnZnnnfy><blBV",
"bllj=3gzbMb8$kkSVVVMMlzMt:NvfcabcccnZZZZZZci->fbBb",
"jjfd==szzMb0$wkkVMMMMnMl5*NfffavczcnnNZAZZbf>>fljl",
"pjfb3=ggkMb0-kkxVBmmMMxb3&fffsffccbbNnZZMVbj<-djjp",
"pkhb7#gqgMM5OkkzVVMxMDMl5&afvfffccbMnMZNnMbj<-0jpf",
"puplu#gqgCn0$kxkVmbMMCMk2&yvvyfvbbMNVNnnNABm8-0fpp",
"iiulu#zggnM0$kkzNMzlnMlp2@rvvrfbbbMVAAVnAAVV0-0fpu",
"hnghk=wkACh1#llhVbbBllk8<#<bMfffvvmbBVVmbVTJi&5Vkp",
"7ushuO18,,*oolCMbfbblmlp%o>ffyffmvmNVSBjNNVb5&=apw",
"6><8<$lSEGz3-lzhNBBMlkd0>@*1><00t580tdfur571*#&:<,",
"crbVd%bbhur%OgMxbbBBjji8>.@<<55$58<-.>0ipfpshNCVlj",
"/UITj%jdhll;$0xxffbbjljw3-fPTWJ5PWKfOuVMMCCCKWWW~W",
"UZhl0$jVuuh*#0MCVNVbkjp8%@pJVVV5MLDl.0luxMCCCCCxPR",
"gqqggO5qzlM;%7bnSMmj0i0;;@yVhjb5lMVD*plfCDDDDCxMmM",
"zg69qO7l96uoX>ss5144<00<-.0LAVb>lllD,qpwq9gzxzkkll",
"p0y0u*17yi7*u#>5,,>===>>:35ifii3upss058d8yiwkkklkj",
"77515@=;=,:=s#*>===%%%%@sy>>3==@;;;*%@%;>><;O=;84<"
};
