/* XPM */
static char *_689348276972[] = {
/* columns rows colors chars-per-pixel */
"50 50 197 2 ",
"   c #5B1800",
".  c #641C04",
"X  c #6A1E05",
"o  c #6B1E09",
"O  c #751F05",
"+  c #472E05",
"@  c #4C2902",
"#  c #572703",
"$  c #5A2205",
"%  c #552E04",
"&  c #582E06",
"*  c #5F200F",
"=  c #572A0B",
"-  c #5B290B",
";  c #4F3208",
":  c #5B3006",
">  c #632105",
",  c #6E2107",
"<  c #6C2A07",
"1  c #65250B",
"2  c #6B240B",
"3  c #632B0D",
"4  c #6C2B0D",
"5  c #712305",
"6  c #782503",
"7  c #73250B",
"8  c #7B250C",
"9  c #742A0D",
"0  c #7B2A0D",
"q  c #6D320D",
"w  c #71310D",
"e  c #672610",
"r  c #6D2612",
"t  c #652C12",
"y  c #6D2B12",
"u  c #742711",
"i  c #7C2612",
"p  c #742B13",
"a  c #7B2C14",
"s  c #742E18",
"d  c #7D2E19",
"f  c #633214",
"g  c #6C3114",
"h  c #653A17",
"j  c #743114",
"k  c #7C3115",
"l  c #74341B",
"z  c #7C331B",
"x  c #733E1C",
"c  c #7D3B1E",
"v  c #7D3421",
"b  c #7D3A20",
"n  c #81270C",
"m  c #872313",
"M  c #842D16",
"N  c #8B2D13",
"B  c #832E1A",
"V  c #892E1A",
"C  c #823215",
"Z  c #8D3416",
"A  c #8C3917",
"S  c #84351C",
"D  c #8B341B",
"F  c #843A1D",
"G  c #8A3A1E",
"H  c #903516",
"J  c #93351A",
"K  c #99331C",
"L  c #943A1D",
"P  c #9A3A1D",
"I  c #A33C1E",
"U  c #843421",
"Y  c #8B3722",
"T  c #853B23",
"R  c #8B3B23",
"E  c #8E3D29",
"W  c #913221",
"Q  c #9F3623",
"!  c #923C23",
"~  c #9B3C23",
"^  c #923D29",
"/  c #9B3E2A",
"(  c #A33E25",
")  c #AB3E24",
"_  c #A23D2A",
"`  c #AB3F2D",
"'  c #B83F2C",
"]  c #9D401F",
"[  c #B1461F",
"{  c #854226",
"}  c #8B4224",
"|  c #85402B",
" . c #8E442C",
".. c #824C2A",
"X. c #88482F",
"o. c #934125",
"O. c #9C4224",
"+. c #974827",
"@. c #93442C",
"#. c #9C442B",
"$. c #954A2C",
"%. c #9B4A2D",
"&. c #8E4631",
"*. c #8B4A32",
"=. c #954631",
"-. c #9B4531",
";. c #954B32",
":. c #9B4B32",
">. c #974F39",
",. c #8E553A",
"<. c #945136",
"1. c #9D5235",
"2. c #9A5836",
"3. c #97533C",
"4. c #9D543B",
"5. c #A54224",
"6. c #AB4324",
"7. c #A3442A",
"8. c #AB442B",
"9. c #A34A2D",
"0. c #AC4B2C",
"q. c #B24526",
"w. c #B34923",
"e. c #B2442C",
"r. c #B34B2C",
"t. c #B84B2D",
"y. c #AD502E",
"u. c #A44533",
"i. c #AC4533",
"p. c #A44D33",
"a. c #AB4D33",
"s. c #A44E3A",
"d. c #AF4F39",
"f. c #B54531",
"g. c #BA4433",
"h. c #B34D33",
"j. c #B94C34",
"k. c #B44F3A",
"l. c #BA4D39",
"z. c #A45235",
"x. c #AC5236",
"c. c #A65936",
"v. c #AC5937",
"b. c #A5543A",
"n. c #AC553B",
"m. c #A5593C",
"M. c #AC593C",
"N. c #B35235",
"B. c #BA5336",
"V. c #B55837",
"C. c #B3543B",
"Z. c #BA543B",
"A. c #B4593E",
"S. c #BA5A3E",
"D. c #AD603E",
"F. c #C44F3D",
"G. c #C1553B",
"H. c #C25A3F",
"J. c #9E5C42",
"K. c #A45642",
"L. c #AC5641",
"P. c #A55A42",
"I. c #AC5C43",
"U. c #AB5E48",
"Y. c #B55641",
"T. c #BB5642",
"R. c #B45C43",
"E. c #BA5C43",
"W. c #B65F49",
"Q. c #BC5E4A",
"!. c #A66046",
"~. c #AC6245",
"^. c #AC644B",
"/. c #AB6A4C",
"(. c #B56146",
"). c #BB6146",
"_. c #B5644B",
"`. c #BB644B",
"'. c #B4684B",
"]. c #BC694C",
"[. c #AE6650",
"{. c #B36750",
"}. c #BC6551",
"|. c #B06950",
" X c #BD6A51",
".X c #BE7356",
"XX c #C15A44",
"oX c #C35D48",
"OX c #CB5C48",
"+X c #C06341",
"@X c #C1654C",
"#X c #C8624C",
"$X c #C1694E",
"%X c #C36651",
"&X c #C26B53",
"*X c #C46D5A",
"=X c #C27058",
/* pixels */
"z k j k M F 1 t z d d d a k k k p B ,.f U p t a 1 t p 4 2 j l > d d B d d a a 9 a k B k   U F N z 2 ",
"n.n.v.M.a.x.S c _._.{. X{._.(.(.b.u.J.f -.U./.W.{._._.(.M.b.$.z K.W.}.{._._.{.}.I.M.b.-.s 1.z.x.b.@.",
"T.T.S.XXB.k.B k  X].].].).R.C.V.s.i.P.4 u.%X=X).T.k.T.Z.N.p.! 8 L.`.%X%XW.R.(.).E.Z.p.#.a b.v.T.n.%.",
"j.k.N.B.j.h.Z S `.).W.Y.C.N.a.a.8.h.~.j _ C.R.j.XXl.B.h.N.R.p.S n.).`.E.C.C.x.x.q.8.) _ a z.V.B.C.u.",
"N.N.N.S.h.N.A F `.).R.V.V.N.Z.Z.C.j.~.j ( 8.x.B.h.C.h.~ ~ x.$.2 S.W.E.E.T.Z.N.r.6.e.) 7.N M.V.C.S.h.",
"x.V.v.V.N.h.C z R.Y.x.a.p.0.a.k.x.h.m.4 ( i.b.l.p.A.S.p.z.~.4.p V.N.N.a.0.0.6.I q.6.( ( 8 v.C.Z.N.0.",
"a.a.a.x.0.a.C z n.C.C.C.C.v.V.n.b.x.~.l / Y.I.C.s.x.I.x.I.U.J.v x.A.N.N.r.0.q.5.6.6.) 7.a m.s.C.9.6.",
"~ ~ L P K ~ 0 z ! ^ -.s.n.I.M.M.M.R./.3 V u.P.N.Y.z.z.z.u.=.U r ] 5.9.O.I 5.5.( 5.5.~ ! O o.W K P L ",
"  l p 9 j 1 4 p p p p r g * j 2 r p p p p p p 9 l . l y 4 p 4 p p 7 7 T l * l M j p p p p u a U S . ",
"b 4.b.n.M.b.z.n.1.s.s.=.z 2 :.M.P.P.I.n.m.M.z.%.T s P.P.U.I.P.b.m.:.o.b.b l :.p.I.@.G ^ n.W.I.z.m.U ",
"a b.Y.C.S.v.C.k.n.n.T.s.S 5 9.@X).`.`.`.).).A.x.U S _.].].).R.R.W.V.a.M.&.v K.T.v.7./ 7.x.Y.Y.Z.M.D ",
"D E.T.l.C.V.T.T.Y.C.Y.L.S 9 z.XX`.`.).@X$X@XY.k.G S `.`.E.C.C.N.a.0.9.b.E d s.k.a.C.C.a.7.#.a.C.x.D ",
"a b.C.7.9.9.x.a.`.V.I.I.z w c.@X}.}.}.}.%X%XE.n.G S `.).Y.C.B.Z.C.C.0.C.^ a 9.N.Y.Y.A.M.b.a.z.z.Y.S ",
"k b.C.v.V.c.M.C.x.b.R.^.j 9 z.E._.W.W.W.R.Y.v.p.A C Y.R.A.x.a.a.C.C.0.v.E d a.N.M.v.M.M.A.b.v.v.W.D ",
"p -.p.x.A.M.v.C.x.C.`. Xj j z.C.S.S.C.h.y.N.r.0.^ M M.n.I.M.C.n.n.V.a.M.E u p.Y.n.S.E.R.I.x.A.E.{.Y ",
"p #.7.a.A.c.n.T.T.Z.Y.U., a a.k.w.r.w.q.[ w.[ [ Y i u.u.b.Y.W.W.(.`.).{.&.s s.S.Q.T.C.T.E.R.Y.W.I.s ",
"2 t j < 7 a 1 f t y t y y r y p w 7 J = u t 2 h * t 3 1 4 g 3 3 4 4 y j y 4 2 y t g r y 1 j t u t 4 ",
"^ @.@.G L G s j -.;.-.%.-.:.:.:.$.o.` f T  .^ ..|  .R Y o.R j 1 E o.$.=.=. . .@. . .Y R p T $.@.@.E ",
"Y.C.C.i.8.7.D S '.).(.).].`.`.`.C.h.g.j 7.`.oX~.(.).W.Y.T.Y.#.d I.W.%X`.`.`.`.W.E.k.i.7.M %.).oXQ.W.",
"l.Z.S.i.f.6.Z F ].].].].].].@X`.S.h.' p 7.@XOX(.Y.Y.Z.h.N.x.#.u Y.).%X).T.).E.Z.T.h.f._ n %.$X$XE.T.",
"B.N.N.0.8.6.D R ]. X]._.`.}.`.}.+Xr.e.w ~ v.h.c.A.S.C.h.a.M.z.z n.(.).Y.N.A.N.0.r.6.6.] 6 +.`.).Z.C.",
"h.9.0.5.6.5.C F ].`.{.`.`.).W.W.V.0.r.q ] p.e.c.p.9.a.7.o.z.;.y Y.E.).A.V.N.y.0.5.6.6.O.0 +.R.Y.S.A.",
"q.6.6.5.8.( M F (.S.T.S.C.C.C.C.y.5.e.q ! M.j.A.V.x.Z.v.s.^.J.g C.x.N.N.0.5.6.6.5.r.q.I C %.N.B.r.r.",
") ) 6.6.e.` V G B.N.N.r.r.e.q.6.y.0.g.< ! C.G.x.x.d.C.C.n. XP.e Z.B.C.B.t.w.q.r.I t.6.P Z %.a.j.8.6.",
"l | d z F g 9 j T R J L T z F J C S d 9 d T =. .*.*.>.T v b g s z D V G Y 9 o.D T F z j j z l l S a ",
". z B B S k k C U G N N p 2 S J G C d G E E R o.r 2 d d v B a z C D M C a . S N Y Y ! Y D S F S S p ",
"z U.Q.Q.].`.`.`.!.Y.h.a.E T m.T.b.$.@.p.b.v.z.x.E U s.Q.Q.%X_.&X~.(.Y.s.$.k z.b.x.C.Y.M.x.a.x.x.-.B ",
"9 I.}.Q.`._.`.). XE.h.9.S z b.C.n.v.c.u.a.C.S.V.U B u.}.%X}.Q.}.'.`.W.b.! 0 s.C.S.T.T.C.V.n.R.E.L.D ",
"4 !.&X`.'.'.].(.=X+XB.0.S z p.C.n.Y.b.9.7.0.N.N.R a :.&X%X`.`.`.].$X).V.o.0 z.E.x.s.x.9.x.v.n.A.E.D ",
"4 !. X`.`.'.].@X(.B.t.8.a s :.a.E.Y.S.T.N.u.p.A.{ 9 1.&X`.`.`.(.(.E.S.s.~ 9 p.A.c.z.v.M.M.Y.Y.M._.M ",
"9 M.).Y.(.Y.A.S.Y.N.t.h.M z m.C.C.x.V.Y.C.p.z.Y.} a :.(.T.E.).C.C.T.h.x.+.0 %.x.s.z.x.C.Y.Y.Y.C.%XS ",
"9 z.T.C.C.N.h.8.9.6.t.0.i p L.T.N.T.Y.C.L.(. X`.o.a 9.Y.N.C.C.9.a.i.6.#.] 5 o.@.Z.Y.E.Y.C.Z.T.XX XC ",
"Y #.i.5.) 8.#.p.7.%.%.R z v &.J.b.>.4.J.>.4.>.{ i W _ ` e.` ` i.#.#.-.$.z y z X.*. .K. .3.>.>.@.T s ",
"- 3 g < q q $ # 8 8 a 7 2 X u d O a j e o u 7 4 + ; % % : & @ @ i 8 7 9 7 2 2 2 9 7 a X . 4 8 6 d 1 ",
"i.i.h.8.f.i.N M v.L.L.I.K.m.s.b./ :.4.U E s.s.m.I.I.z.p.z.p. .z p.z.z.L.I.I.m.b.c.z.%.E z $.%.p.=.Y ",
"Z.C.Z.h.C.a.G d `._.`._.).W.Y.C.7.n.m.a -.}.W.(.T.T.Z.B.l.C.#.a b.(. X`.R.W.W.W.V.V.p.7.C b.v.S.n.%.",
"m.m.D.D.D.2.c x  X`.).E.Y.C.N.N.i.V.m.p -.@XY.A.C.C.S.V.b.n.;.y b.`.&X`.C.T.S.C.N.0.7.9.0 b.N.S.V.u.",
"h.h.G.B.B.0.D Y `.).W.C.x.a.x.N.8.x.(.9 ! k.a.N.B.k.j.r.8.C.u.a A.).).C.C.C.C.r.w.6.5.7.6 c.C.B.S.x.",
"V.h.B.B.Z.p.D D ).W.Z.C.N.N.N.A.Z.a.'.9 Y N.C.k.b.9.z.9.O.b.<.4 Y.W.C.C.B.C.h.8.q.) 6.7.0 z.T.Z.V.y.",
"v.x.N.y.N.p.S S C.N.h.h.C.C.V.N.H.O.D.7 ! Y.Z.N.V.a.N.N.a.R.m.p C.Z.Z.N.0.6.( I 6.I 7.#.0 p.W.l.0.6.",
"O.9.7.~ #./ B U @.$.R.P.|.^._._.[.[.|.l U m._.(.!.^.^.!.!.P.*.k s.h.) 0.7.x.i.8.a.%.z.} k o.:.-._ ~ ",
"> 9 9 < j p   e 7 8 V 9 y 2 u a u a T o 4 d a 9 k s s u p j p 2 9 k 0 C 9 9 9 a n O 0 7 , a V O S 8 ",
"M #.9.7.a.u.7.u.o.! #.F p 2 R -.=.E ;.@.;.o.R W C p R  .=.;.@.=.} $.+.A A w } O.#.^ $.@.#.n.d.u.%.C ",
"k 4.M.M.M.z.b.I.c.b.Y.z.F k K.}.*X}.}.].}.`.E.W.^ S (. X*X X_.}.@XoXXX8.6.C C.T.n.-.-.@.%.v.C.C.K.D ",
"S I.R.Y.C.x.C.V.b.M.C.v.k 2 z.`.`.%X`. X$X$XR.a.Y a I.).`.W._.}.%X#XZ.) 5.0 x.k.W.b.z.u.p.x.x.S.L.B ",
"m Y.k.f.j.e.j.g.R.W.E.`.S 9 n.%X).&X`.%X`.@XE.x.! 0 _.`.`.`.@X%X'.`.V.$.$.< 1.1.Y.V.n.s.a.p.#.v.W.S ",
"j !.m.m.D.c.(.m.M.V.C.`.C 7 z.Q.).&XA.].A.(.E.N.R 8  X].].`.`.E.I.).z.%.$.< 1.m.C.k.S.V.C.x.#.v.Q.B ",
"0 M.9.9.x.b.(.z.M.S.x.].C 7 s.Y.V.(.z.(.M.x.y.9.T 7 _.M.L.Y.E.C.C.XX8.8.L O a.C.Z.N.Z.C.R.b.u.W.{.S ",
"x } s.C.I.(.I.R.W.}.*XU.z s %.C.N.h.h.8.0.8.0.0.T D p.N.N.N.9.a.7.0.0.0.D C u.E.I.R.~.(.(._.}._.U.T ",
"1 p D D C C C d S d U z 2 2 S L L A A Z Z Z Z Z 9 7 D ~ L L H A Z H Z A 7 > z o.G G S Y S T S S R 4 "
};
